<svg xmlns="http://www.w3.org/2000/svg" width="18" height="19" viewBox="0 0 18 19" fill="none">
    <path d="M12.3075 3.72852C13.7625 3.72852 14.9325 4.90602 14.9325 6.35352C14.9325 7.77102 13.8075 8.92602 12.405 8.97852C12.345 8.97102 12.2775 8.97102 12.21 8.97852M13.755 15.7285C14.295 15.616 14.805 15.3985 15.225 15.076C16.395 14.1985 16.395 12.751 15.225 11.8735C14.8125 11.5585 14.31 11.3485 13.7775 11.2285M6.86998 8.88102C6.79498 8.87352 6.70498 8.87352 6.62248 8.88102C4.83748 8.82102 3.41998 7.35852 3.41998 5.55852C3.41998 3.72102 4.90498 2.22852 6.74998 2.22852C8.58748 2.22852 10.08 3.72102 10.08 5.55852C10.0725 7.35852 8.65498 8.82102 6.86998 8.88102ZM3.11998 11.6485C1.30498 12.8635 1.30498 14.8435 3.11998 16.051C5.18248 17.431 8.56498 17.431 10.6275 16.051C12.4425 14.836 12.4425 12.856 10.6275 11.6485C8.57248 10.276 5.18998 10.276 3.11998 11.6485Z" stroke="#37B24D" stroke-linecap="round" stroke-linejoin="round"/>
</svg>