<svg width="18" height="19" viewBox="0 0 18 19" fill="none" xmlns="http://www.w3.org/2000/svg">
<path d="M13.605 16.3789C12.945 16.5739 12.165 16.6639 11.25 16.6639H6.75C5.835 16.6639 5.055 16.5739 4.395 16.3789M13.605 16.3789C13.44 14.4289 11.4375 12.8914 9 12.8914C6.5625 12.8914 4.56 14.4289 4.395 16.3789M13.605 16.3789C15.645 15.8014 16.5 14.2489 16.5 11.4139V6.91394C16.5 3.16394 15 1.66394 11.25 1.66394H6.75C3 1.66394 1.5 3.16394 1.5 6.91394V11.4139C1.5 14.2489 2.355 15.8014 4.395 16.3789M9 10.7914C7.515 10.7914 6.315 9.58395 6.315 8.09895C6.315 6.61395 7.515 5.41394 9 5.41394C10.485 5.41394 11.685 6.61395 11.685 8.09895C11.685 9.58395 10.485 10.7914 9 10.7914Z" stroke="#F76707" stroke-linecap="round" stroke-linejoin="round"/>
</svg>
