<svg width="18" height="19" viewBox="0 0 18 19" fill="none" xmlns="http://www.w3.org/2000/svg">
<path d="M12.3075 3.72754C13.7625 3.72754 14.9325 4.90504 14.9325 6.35254C14.9325 7.77004 13.8075 8.92504 12.405 8.97754C12.345 8.97004 12.2775 8.97004 12.21 8.97754M13.755 15.7275C14.295 15.615 14.805 15.3975 15.225 15.075C16.395 14.1975 16.395 12.75 15.225 11.8725C14.8125 11.5575 14.31 11.3475 13.7775 11.2275M6.87004 8.88004C6.79504 8.87254 6.70504 8.87254 6.62254 8.88004C4.83754 8.82004 3.42004 7.35754 3.42004 5.55754C3.42004 3.72004 4.90504 2.22754 6.75004 2.22754C8.58754 2.22754 10.08 3.72004 10.08 5.55754C10.0725 7.35754 8.65504 8.82004 6.87004 8.88004ZM3.12004 11.6475C1.30504 12.8625 1.30504 14.8425 3.12004 16.05C5.18254 17.43 8.56504 17.43 10.6275 16.05C12.4425 14.835 12.4425 12.855 10.6275 11.6475C8.57254 10.275 5.19004 10.275 3.12004 11.6475Z" stroke="#4263EB" stroke-linecap="round" stroke-linejoin="round"/>
</svg>
