<svg width="18" height="19" viewBox="0 0 18 19" fill="none" xmlns="http://www.w3.org/2000/svg">
<path d="M6 9.87754H11.25M6 12.8775H9.285M12 3.74254C14.4975 3.87754 15.75 4.80004 15.75 8.22754V12.7275C15.75 15.7275 15 17.2275 11.25 17.2275H6.75C3 17.2275 2.25 15.7275 2.25 12.7275V8.22754C2.25 4.80754 3.5025 3.87754 6 3.74254M7.5 5.22754H10.5C12 5.22754 12 4.47754 12 3.72754C12 2.22754 11.25 2.22754 10.5 2.22754H7.5C6.75 2.22754 6 2.22754 6 3.72754C6 5.22754 6.75 5.22754 7.5 5.22754Z" stroke="#F03E3E" stroke-miterlimit="10" stroke-linecap="round" stroke-linejoin="round"/>
</svg>

