<svg width="24" height="24" viewBox="0 0 24 24" fill="none" xmlns="http://www.w3.org/2000/svg">
<path d="M6.13 18.15C6.13 18.5642 6.46579 18.9 6.88 18.9C7.29421 18.9 7.63 18.5642 7.63 18.15H6.13ZM7.63 16.08C7.63 15.6658 7.29421 15.33 6.88 15.33C6.46579 15.33 6.13 15.6658 6.13 16.08H7.63ZM11.25 18.15C11.25 18.5642 11.5858 18.9 12 18.9C12.4142 18.9 12.75 18.5642 12.75 18.15H11.25ZM12.75 14.01C12.75 13.5958 12.4142 13.26 12 13.26C11.5858 13.26 11.25 13.5958 11.25 14.01H12.75ZM16.37 18.15C16.37 18.5642 16.7058 18.9 17.12 18.9C17.5342 18.9 17.87 18.5642 17.87 18.15H16.37ZM17.87 11.93C17.87 11.5158 17.5342 11.18 17.12 11.18C16.7058 11.18 16.37 11.5158 16.37 11.93H17.87ZM17.12 5.85H17.87V5.1H17.12V5.85ZM16.66 6.39L17.2298 6.87762L17.2309 6.87635L16.66 6.39ZM6.69855 11.7023C6.29664 11.8025 6.05207 12.2095 6.15228 12.6115C6.25249 13.0134 6.65954 13.2579 7.06145 13.1577L6.69855 11.7023ZM14.19 5.1C13.7758 5.1 13.44 5.43579 13.44 5.85C13.44 6.26421 13.7758 6.6 14.19 6.6V5.1ZM16.37 8.77C16.37 9.18421 16.7058 9.52 17.12 9.52C17.5342 9.52 17.87 9.18421 17.87 8.77H16.37ZM7.63 18.15V16.08H6.13V18.15H7.63ZM12.75 18.15V14.01H11.25V18.15H12.75ZM17.87 18.15V11.93H16.37V18.15H17.87ZM16.5491 5.36365L16.0891 5.90365L17.2309 6.87635L17.6909 6.33635L16.5491 5.36365ZM16.0902 5.90238C13.6419 8.76349 10.3578 10.7899 6.69855 11.7023L7.06145 13.1577C11.0222 12.1701 14.5781 9.97651 17.2298 6.87762L16.0902 5.90238ZM14.19 6.6H17.12V5.1H14.19V6.6ZM16.37 5.85V8.77H17.87V5.85H16.37ZM9 22.75H15V21.25H9V22.75ZM15 22.75C17.574 22.75 19.5709 22.2398 20.9053 20.9053C22.2398 19.5709 22.75 17.574 22.75 15H21.25C21.25 17.426 20.7602 18.9291 19.8447 19.8447C18.9291 20.7602 17.426 21.25 15 21.25V22.75ZM22.75 15V9H21.25V15H22.75ZM22.75 9C22.75 6.42603 22.2398 4.42914 20.9053 3.09467C19.5709 1.7602 17.574 1.25 15 1.25V2.75C17.426 2.75 18.9291 3.2398 19.8447 4.15533C20.7602 5.07086 21.25 6.57397 21.25 9H22.75ZM15 1.25H9V2.75H15V1.25ZM9 1.25C6.42603 1.25 4.42914 1.7602 3.09467 3.09467C1.7602 4.42914 1.25 6.42603 1.25 9H2.75C2.75 6.57397 3.2398 5.07086 4.15533 4.15533C5.07086 3.2398 6.57397 2.75 9 2.75V1.25ZM1.25 9V15H2.75V9H1.25ZM1.25 15C1.25 17.574 1.7602 19.5709 3.09467 20.9053C4.42914 22.2398 6.42603 22.75 9 22.75V21.25C6.57397 21.25 5.07086 20.7602 4.15533 19.8447C3.2398 18.9291 2.75 17.426 2.75 15H1.25Z" fill="#1098AD" fill-opacity="0.5"/>
</svg>
