<svg width="73" height="56" viewBox="0 0 73 56" fill="none" xmlns="http://www.w3.org/2000/svg">
<path d="M26.4441 9.73909H8.58021C8.12499 9.7399 7.67846 9.6145 7.29022 9.37681C6.90199 9.13912 6.58724 8.79846 6.38097 8.39265L4.6011 4.87005L6.38097 1.34644C6.58715 0.940565 6.90187 0.599835 7.29013 0.362133C7.67839 0.124431 8.12497 -0.000925739 8.58021 5.14696e-06H26.4441C26.8993 -0.000811608 27.3458 0.124589 27.7341 0.362279C28.1223 0.599968 28.437 0.940638 28.6433 1.34644L30.4232 4.87005L28.6433 8.39366C28.437 8.79934 28.1222 9.13987 27.734 9.37739C27.3457 9.61491 26.8992 9.74011 26.4441 9.73909Z" fill="#FCC419"/>
<path d="M26.4441 9.73909H8.58024C8.12502 9.7399 7.67849 9.6145 7.29025 9.37681C6.90202 9.13912 6.58728 8.79846 6.381 8.39265L4.60114 4.87005L6.381 1.34644C6.58718 0.940565 6.90191 0.599835 7.29016 0.362133C7.67842 0.124431 8.125 -0.000925739 8.58024 5.14696e-06H26.4441C26.8993 -0.000811608 27.3458 0.124589 27.7341 0.362279C28.1223 0.599968 28.4371 0.940638 28.6433 1.34644L30.4232 4.87005L28.6433 8.39366C28.437 8.79934 28.1222 9.13987 27.734 9.37739C27.3457 9.61491 26.8992 9.74011 26.4441 9.73909Z" fill="#FCC419"/>
<path d="M68.5418 2.43361H4.60115C4.27668 2.43201 3.96486 2.5593 3.73421 2.7875C3.50356 3.01571 3.37295 3.32615 3.37109 3.65062V9.73667H69.7718V3.65062C69.77 3.32615 69.6394 3.01571 69.4087 2.7875C69.1781 2.5593 68.8662 2.43201 68.5418 2.43361Z" fill="#E9ECEF"/>
<path d="M69.7718 7.30469H3.37109V9.73971H69.7718V7.30469Z" fill="#CED4DA"/>
<path d="M69.7718 4.87112H31.1837C30.9554 4.86997 30.7313 4.93232 30.5364 5.05121C30.3415 5.17009 30.1835 5.34083 30.08 5.54434L28.6433 8.39473C28.437 8.80053 28.1223 9.1412 27.7341 9.37889C27.3458 9.61658 26.8993 9.74198 26.4441 9.74116H8.58022C8.125 9.74198 7.67847 9.61658 7.29023 9.37889C6.90199 9.1412 6.58725 8.80053 6.38097 8.39473L4.94023 5.54434C4.83678 5.34083 4.67878 5.17009 4.48389 5.05121C4.289 4.93232 4.06488 4.86997 3.83659 4.87112H3.37106C2.72257 4.86792 2.09933 5.12226 1.63825 5.57826C1.17716 6.03427 0.915937 6.65465 0.911957 7.30313L0.911957 53.5645C0.913534 53.8859 0.978392 54.2038 1.10283 54.5001C1.22726 54.7964 1.40884 55.0652 1.63719 55.2913C1.86554 55.5175 2.13619 55.6964 2.43369 55.8179C2.73118 55.9394 3.0497 56.0011 3.37106 55.9995H69.7718C70.0932 56.0011 70.4117 55.9394 70.7092 55.8179C71.0067 55.6964 71.2773 55.5175 71.5057 55.2913C71.734 55.0652 71.9156 54.7964 72.04 54.5001C72.1645 54.2038 72.2293 53.8859 72.2309 53.5645V7.30313C72.2269 6.65465 71.9657 6.03427 71.5046 5.57826C71.0435 5.12226 70.4203 4.86792 69.7718 4.87112Z" fill="#FFD782"/>
<path d="M68.5418 53.5668H4.60115C4.27668 53.5684 3.96486 53.4412 3.73421 53.213C3.50356 52.9847 3.37295 52.6743 3.37109 52.3498C3.37295 52.0254 3.50356 51.7149 3.73421 51.4867C3.96486 51.2585 4.27668 51.1312 4.60115 51.1328H68.5418C68.8662 51.1312 69.1781 51.2585 69.4087 51.4867C69.6394 51.7149 69.77 52.0254 69.7718 52.3498C69.77 52.6743 69.6394 52.9847 69.4087 53.213C69.1781 53.4412 68.8662 53.5684 68.5418 53.5668Z" fill="#FCC419"/>
<path d="M46.4088 23.1301H64.8505C65.175 23.1317 65.4868 23.0045 65.7175 22.7763C65.9481 22.548 66.0787 22.2376 66.0806 21.9131V12.1741C66.0787 11.8496 65.9481 11.5391 65.7175 11.3109C65.4868 11.0827 65.175 10.9554 64.8505 10.957H46.4088C46.0843 10.9554 45.7725 11.0827 45.5418 11.3109C45.3112 11.5391 45.1806 11.8496 45.1787 12.1741V21.9131C45.1806 22.2376 45.3112 22.548 45.5418 22.7763C45.7725 23.0045 46.0843 23.1317 46.4088 23.1301Z" fill="#E9ECEF"/>
<path d="M62.3935 15.8247H48.868C48.5435 15.8263 48.2317 15.699 48.001 15.4708C47.7704 15.2426 47.6398 14.9321 47.6379 14.6076C47.6398 14.2832 47.7704 13.9727 48.001 13.7445C48.2317 13.5163 48.5435 13.389 48.868 13.3906H62.3935C62.718 13.389 63.0298 13.5163 63.2604 13.7445C63.4911 13.9727 63.6217 14.2832 63.6236 14.6076C63.6217 14.9321 63.4911 15.2426 63.2604 15.4708C63.0298 15.699 62.718 15.8263 62.3935 15.8247Z" fill="#DEE2E6"/>
<path d="M62.3935 20.6879H48.868C48.5435 20.6896 48.2317 20.5623 48.001 20.334C47.7704 20.1058 47.6398 19.7954 47.6379 19.4709C47.6398 19.1465 47.7704 18.836 48.001 18.6078C48.2317 18.3796 48.5435 18.2523 48.868 18.2539H62.3935C62.718 18.2523 63.0298 18.3796 63.2604 18.6078C63.4911 18.836 63.6217 19.1465 63.6236 19.4709C63.6217 19.7954 63.4911 20.1058 63.2604 20.334C63.0298 20.5623 62.718 20.6896 62.3935 20.6879Z" fill="#DEE2E6"/>
</svg>
