<svg id="add_project" xmlns="http://www.w3.org/2000/svg" width="267.995" height="215.899" viewBox="0 0 267.995 215.899">
  <rect id="Rectangle_440" data-name="Rectangle 440" width="183.627" height="36.348" rx="8" transform="translate(0 76.61)" fill="#f5f7fa"/>
  <path id="Path_6676" data-name="Path 6676" d="M87.365,78.738c-12.385,0-44.607.138-57-.026-1.3,0-1.383-.471-1.513-1.071,0-.035.042-.073.025-.112a4.6,4.6,0,0,1-.076-1.352c.109-.635.3-1.114,1.676-1.075,12.154.207,44.808,0,57,0,1.454,0,1.429.549,1.387,1.209v1.244c0,.432-.088.833-.914,1.036C87.566,78.712,87.863,78.738,87.365,78.738Z" transform="translate(14.615 17.151)" fill="#ccd5e2"/>
  <g id="Group_6998" data-name="Group 6998" transform="translate(119.05 88.285)" opacity="0.5">
    <path id="Path_6677" data-name="Path 6677" d="M97.411,83.174c-6.35,0-7.569-.073-13.831-.073-3.843-.052-4.078-1.386-4.455-3.153a28.954,28.954,0,0,1-.142-4.319c.314-1.861.884-3.269,4.975-3.153H97.788c4.283,0,4.191,1.607,4.082,3.55v3.658c0,1.209-.256,2.457-2.682,3.058a9.619,9.619,0,0,1-1.777.432Z" transform="translate(-78.957 -72.469)" fill="none" stroke="#ccd5e2" stroke-linecap="round" stroke-width="3.21" stroke-dasharray="13.19"/>
  </g>
  <path id="Path_6678" data-name="Path 6678" d="M116.6,83.174c-6.349,0-7.569-.073-13.831-.073-3.843-.052-4.078-1.386-4.455-3.153a28.969,28.969,0,0,1-.143-4.319c.314-1.861.884-3.269,4.975-3.153h13.831c4.284,0,4.192,1.607,4.079,3.55v3.658c0,1.209-.252,2.457-2.682,3.058A9.467,9.467,0,0,1,116.6,83.174Z" transform="translate(49.836 15.817)" fill="#ffc63c"/>
  <rect id="Rectangle_441" data-name="Rectangle 441" width="183.627" height="36.348" rx="8" transform="translate(0 119.664)" fill="#f5f7fa"/>
  <path id="Path_6679" data-name="Path 6679" d="M78.675,107.292c-12.385,0-35.922.137-48.3-.023-1.3-.021-1.383-.475-1.513-1.071,0-.039.042-.078.025-.118a4.583,4.583,0,0,1-.076-1.351c.109-.635.3-1.114,1.677-1.071,12.154.207,36.124,0,48.3,0,1.458,0,1.429.543,1.387,1.2v1.244c0,.41-.088.834-.909,1.036C78.88,107.265,79.174,107.292,78.675,107.292Z" transform="translate(14.621 31.653)" fill="#ccd5e2"/>
  <g id="Group_6999" data-name="Group 6999" transform="translate(147.998 131.674)" opacity="0.5">
    <path id="Path_6680" data-name="Path 6680" d="M116.61,111.955c-6.349,0-7.569-.074-13.831-.074-3.843-.056-4.078-1.39-4.455-3.157a28.968,28.968,0,0,1-.143-4.318c.314-1.858.889-3.27,4.974-3.153h13.831c4.284,0,4.192,1.61,4.083,3.554v3.658c0,1.2-.256,2.458-2.682,3.058a10.023,10.023,0,0,1-1.778.433Z" transform="translate(-98.156 -101.245)" fill="none" stroke="#ccd5e2" stroke-linecap="round" stroke-width="3.21" stroke-dasharray="13.19"/>
  </g>
  <path id="Path_6681" data-name="Path 6681" d="M97.411,112.013c-6.35,0-7.569-.074-13.831-.074-3.843-.051-4.078-1.386-4.455-3.153a28.953,28.953,0,0,1-.142-4.318c.314-1.862.884-3.27,4.975-3.153H97.788c4.283,0,4.191,1.606,4.082,3.554v3.667c0,1.209-.256,2.462-2.682,3.062A9.6,9.6,0,0,1,97.411,112.013Z" transform="translate(40.093 30.459)" fill="#79e3aa"/>
  <path id="Path_6682" data-name="Path 6682" d="M119.56,112.794c-6.983-1.417-8.306-1.767-15.176-3.162-4.217-.911-4.192-2.431-4.237-4.457a32.6,32.6,0,0,1,.749-4.781c.737-1.978,1.677-3.4,6.132-2.358l15.214,3.079c4.71.955,4.284,2.7,3.742,4.815l-.78,4.012c-.255,1.331-.8,2.648-3.592,2.77A10.507,10.507,0,0,1,119.56,112.794Z" transform="translate(50.853 28.621)" fill="#63c0f9"/>
  <rect id="Rectangle_442" data-name="Rectangle 442" width="183.627" height="36.348" rx="8" transform="translate(0 163.174)" fill="#f5f7fa"/>
  <path id="Path_6683" data-name="Path 6683" d="M87.365,136.148c-12.385,0-44.607.134-57-.026-1.3,0-1.383-.47-1.513-1.071,0-.035.042-.074.025-.113a4.629,4.629,0,0,1-.075-1.355c.109-.63.3-1.11,1.677-1.071,12.154.207,44.808,0,57,0,1.454,0,1.429.547,1.387,1.209v1.244c0,.41-.088.832-.914,1.036C87.566,136.118,87.863,136.148,87.365,136.148Z" transform="translate(14.615 46.305)" fill="#ccd5e2"/>
  <path id="Path_6684" data-name="Path 6684" d="M97.411,140.859c-6.35,0-7.569-.077-13.831-.077-3.843-.053-4.078-1.387-4.455-3.153a28.966,28.966,0,0,1-.142-4.32c.314-1.856.884-3.269,4.975-3.153H97.788c4.283,0,4.191,1.612,4.082,3.555v3.658c0,1.2-.256,2.458-2.682,3.058A10.029,10.029,0,0,1,97.411,140.859Z" transform="translate(40.093 45.106)" fill="#aa8df8"/>
  <path id="Path_6685" data-name="Path 6685" d="M207.94,153.887c-10.086-1.38-97.428-3.409-97.863,1.211-.286,3.029,25.263,3.985,32.644,4.165C212.783,160.965,218.582,155.336,207.94,153.887Z" transform="translate(55.895 56.319)" fill="#f5f7fa"/>
  <path id="Path_6686" data-name="Path 6686" d="M172.806,151.925v.095a2.758,2.758,0,0,1-2.722,2.791h-8.742a2.7,2.7,0,0,1-2.461-1.327,2.874,2.874,0,0,1-.044-2.86,2.7,2.7,0,0,1,2.417-1.408h8.861A2.762,2.762,0,0,1,172.806,151.925Z" transform="translate(80.473 54.785)" fill="#ffbda6"/>
  <path id="Path_6687" data-name="Path 6687" d="M124.8,158.726h-.068a2.77,2.77,0,0,1-2.645-2.875l.291-9a2.716,2.716,0,1,1,5.43.181l-.289,9.032A2.751,2.751,0,0,1,124.8,158.726Z" transform="translate(61.996 52.244)" fill="#ffbda6"/>
  <path id="Path_6688" data-name="Path 6688" d="M164.111,124.607l.374,29.445s-.784,1.169,1.075,1.716,18.591-.271,18.591-.271,2.39,2.734,1.846,8.486-1.3,5.467-1.3,5.467-22.578,2.191-28.952-.547-5.075-29.289-5.075-29.289l-15.126.276s-3.451-.276-2.921,3.831,1.061,16.7,1.061,16.7,1.951,2.007-6.639,2.192c-10.095.09-8.462-1.384-8.462-1.384s-.28-24.621,1.579-31.736c.724-5.657,23.039-4.917,23.039-4.917Z" transform="translate(60.164 42.258)" fill="#ff7641"/>
  <path id="Path_6689" data-name="Path 6689" d="M150.263,130.906a5.947,5.947,0,0,1-5.535-5.79.379.379,0,1,1,.757,0,4.932,4.932,0,0,0,1.844,3.779,4.492,4.492,0,0,0,3.4,1.166.387.387,0,0,1,.428.315.4.4,0,0,1-.271.464A2.744,2.744,0,0,1,150.263,130.906Z" transform="translate(73.49 42.352)" fill="#f45721"/>
  <path id="Path_6690" data-name="Path 6690" d="M132.937,125.514a12.866,12.866,0,0,1-7.109-.181c-5.537-1.824-9.36-7.7-11.418-17.456a2.8,2.8,0,0,1,2.076-3.332,2.717,2.717,0,0,1,3.234,2.138c1.107,5.273,3.358,11.862,7.773,13.312,5.333,1.763,12.276-4.184,14.274-6.052a2.657,2.657,0,0,1,2.657-.591,2.772,2.772,0,0,1,1.824,2.075,2.852,2.852,0,0,1-.832,2.666,36.336,36.336,0,0,1-7.714,5.582A20.844,20.844,0,0,1,132.937,125.514Z" transform="translate(58.063 32.071)" fill="#ffbda6"/>
  <path id="Path_6691" data-name="Path 6691" d="M162.564,146.73a2.744,2.744,0,0,1-.4-.029,2.706,2.706,0,0,1-1.794-1.1,2.866,2.866,0,0,1-.513-2.082,27.335,27.335,0,0,0-5.163-20.556,31.839,31.839,0,0,0-7.353-7.346,2.852,2.852,0,0,1-.743-3.8,2.671,2.671,0,0,1,3.659-.917,36.7,36.7,0,0,1,8.659,8.557,33.349,33.349,0,0,1,6.31,24.91A2.738,2.738,0,0,1,162.564,146.73Z" transform="translate(74.223 35.137)" fill="#ffbda6"/>
  <path id="Path_6692" data-name="Path 6692" d="M141.325,107.879c.461-.033,6.921-.318,7.192-.271,5,.879,8.341,2.305,8.406,3.052.336,5.326.752,16.234.668,22.249a.777.777,0,0,1-.534.722c-2.768.879-6.551.951-10.279,1.227a36.83,36.83,0,0,1-10.671-1.484.676.676,0,0,1-.513-.547c-1.12-6.845-2.712-15.987-3.295-20.893C132.034,110.094,141.141,107.893,141.325,107.879Z" transform="translate(67.177 33.657)" fill="#fff"/>
  <path id="Path_6693" data-name="Path 6693" d="M148.317,109.183c5.772,3.622,9.988,6.408,8.346,7.786a28.458,28.458,0,0,1-8.2,4.421A53.118,53.118,0,0,1,148.317,109.183Z" transform="translate(75.17 34.459)" fill="#fff"/>
  <g id="Group_7000" data-name="Group 7000" transform="translate(223.273 150.563)">
    <path id="Path_6694" data-name="Path 6694" d="M149.83,120.439h.023a.432.432,0,0,0,.36-.476,36.824,36.824,0,0,0-1.306-5.861.428.428,0,0,0-.317-.318.413.413,0,0,0-.418.151.445.445,0,0,0-.054.452,36.055,36.055,0,0,1,1.25,5.675A.423.423,0,0,0,149.83,120.439Z" transform="translate(-148.081 -113.773)" fill="#63c0f9" opacity="0.6"/>
  </g>
  <path id="Path_6695" data-name="Path 6695" d="M136.153,109.324c-7.427,2.749-8.151,3.329-7.427,4.379a17.159,17.159,0,0,0,7.806,6.328C136.478,116.564,136.928,111.739,136.153,109.324Z" transform="translate(65.253 34.53)" fill="#fff"/>
  <g id="Group_7001" data-name="Group 7001" transform="translate(199.755 151.395)">
    <path id="Path_6696" data-name="Path 6696" d="M132.931,117.695a.415.415,0,0,0,.341-.232l1.232-2.5a.435.435,0,0,0-.012-.439.409.409,0,0,0-.73.059l-1.236,2.5a.443.443,0,0,0,.029.433.417.417,0,0,0,.377.194Z" transform="translate(-132.482 -114.325)" fill="#63c0f9" opacity="0.6"/>
  </g>
  <g id="Group_7002" data-name="Group 7002" transform="translate(202.808 141.049)" opacity="0.6">
    <path id="Path_6697" data-name="Path 6697" d="M143.893,114.22a3.489,3.489,0,0,0,.493-.053,8.149,8.149,0,0,0,7.234-6.18.443.443,0,0,0-.054-.324.41.41,0,0,0-.259-.188.424.424,0,0,0-.5.323,7.314,7.314,0,0,1-6.536,5.514A8.638,8.638,0,0,1,135.3,108.5a.417.417,0,0,0-.564-.195.441.441,0,0,0-.188.58A9.424,9.424,0,0,0,143.893,114.22Z" transform="translate(-134.507 -107.464)" fill="#63c0f9"/>
  </g>
  <path id="Path_6698" data-name="Path 6698" d="M147.509,120.628l3,1.924-2.607,1.47Z" transform="translate(74.902 40.27)" fill="#63c0f9" opacity="0.4"/>
  <path id="Path_6699" data-name="Path 6699" d="M139.608,114.76l-1.025,3.484-2.052-2.21Z" transform="translate(69.328 37.291)" fill="#63c0f9" opacity="0.4"/>
  <path id="Path_6700" data-name="Path 6700" d="M142.459,118.294l2.177,2.868-2.934.46Z" transform="translate(71.954 39.084)" fill="#63c0f9" opacity="0.4"/>
  <path id="Path_6701" data-name="Path 6701" d="M136.542,120.672l-1.019,3.484-2.058-2.21Z" transform="translate(67.771 40.293)" fill="#63c0f9" opacity="0.4"/>
  <path id="Path_6702" data-name="Path 6702" d="M133.219,109.451l-1.024,3.484-2.054-2.206Z" transform="translate(66.084 34.594)" fill="#63c0f9" opacity="0.4"/>
  <path id="Path_6703" data-name="Path 6703" d="M143.845,123.226l-1.019,3.484-2.057-2.21Z" transform="translate(71.479 41.59)" fill="#63c0f9" opacity="0.4"/>
  <path id="Path_6704" data-name="Path 6704" d="M144.055,112.752l3.389,1.012-2.117,2.144Z" transform="translate(73.148 36.272)" fill="#63c0f9" opacity="0.4"/>
  <path id="Path_6705" data-name="Path 6705" d="M151.031,111.207l3.39,1.012-2.117,2.144Z" transform="translate(76.69 35.487)" fill="#63c0f9" opacity="0.4"/>
  <path id="Path_6706" data-name="Path 6706" d="M138.774,102.784c-.291,4.089-1.3,8.159-1.3,9.422a2.8,2.8,0,0,1,0,.391c-.193,1.235,3.041,1.645,4.517,1.55.692-.048,4.881-.21,4.525-1.6a91.294,91.294,0,0,1-1.633-10.083.535.535,0,0,0-.562-.476C139.379,102.337,138.8,102.176,138.774,102.784Z" transform="translate(69.802 30.803)" fill="#ffbda6"/>
  <path id="Path_6707" data-name="Path 6707" d="M170.508,156.373c1.384.808,3.15,1.948,3.8,1.663.332-.142,3.15.742,2.56,0-4.826-6.26-7.691-9.835-8.845-10.634-.46-.309-1.6.994-2.63,2.016-.377.38-1.089.475-1.084,1.042a2.309,2.309,0,0,0,.761,1.378,23.754,23.754,0,0,1,2.58,3.233C168.228,156.183,167.771,154.785,170.508,156.373Z" transform="translate(83.432 53.842)" fill="#373753"/>
  <path id="Path_6708" data-name="Path 6708" d="M121.718,152.664c-1.509.574-3.487,1.193-3.691,1.9-.106.351-.428,1.745.517,1.778,12.4.446,11.869.78,11.634-3.114-.032-.547.356-1.17-.059-1.521a2.153,2.153,0,0,0-1.514-.309,22.245,22.245,0,0,1-4.065-.086C123.342,150.991,124.67,151.556,121.718,152.664Z" transform="translate(59.861 55.807)" fill="#373753"/>
  <path id="Path_6709" data-name="Path 6709" d="M140.014,130.933a.441.441,0,0,1,.4.472l-.039.713-.021.449c-.023.464-.044.974-.065,1.524-.176,4.713-.187,9.715.075,14.395l.051.864c.567,8.822,2.081,14.565,4.621,15.664a.451.451,0,0,1,.231.582.428.428,0,0,1-.565.238c-3.083-1.334-4.654-7.586-5.2-17.3-.264-4.713-.252-9.74-.075-14.481l.032-.8q.023-.511.045-.963l.05-.945A.437.437,0,0,1,140.014,130.933Z" transform="translate(70.734 45.502)" fill="#f45721"/>
  <path id="Path_6710" data-name="Path 6710" d="M159.185,105.094c.476-.454,5.321-20.438-5.963-17.358-.335-4.715-3.653-9.611-7.853-8.823-5.274.993-12.513,11.093-17.647,11.442-1.846-.179-.164,2.588,1.3,4.037,3.218,3.17,2.966.424,1.369,3.2a5.566,5.566,0,0,0-.691,3.295c.318,4.761,6.958,9.017,6.866,9.032Z" transform="translate(64.443 19.045)" fill="#703713"/>
  <path id="Path_6711" data-name="Path 6711" d="M136.493,88.822c-3.714.695-5.44,1.81-4.519,9.1.434,3.419,1.06,8.529,3.515,10.75a6.472,6.472,0,0,0,2.426,1.346c3.014.9,11.845-.876,13.172-1.512,7.3-3.481,2.611-16.268,1.539-18.018-.7-1.132-1.084-2.629-2.269-3.075-4.038-1.515-9.914.675-13.864,1.417Z" transform="translate(66.891 23.137)" fill="#ffbda6"/>
  <path id="Path_6712" data-name="Path 6712" d="M145.338,99.837a2.916,2.916,0,0,0,4.519.136,3.067,3.067,0,0,0-3.768-4.712Z" transform="translate(73.8 27.219)" fill="#ffbda6"/>
  <path id="Path_6713" data-name="Path 6713" d="M141.672,93.94a.85.85,0,0,1,.644.2.9.9,0,0,1,.315.611.722.722,0,0,1,.015.1.825.825,0,0,1-.871.769.921.921,0,0,1-.713-.479.972.972,0,0,1-.027-.877A.77.77,0,0,1,141.672,93.94Z" transform="translate(71.568 26.715)" fill="#c1564d"/>
  <path id="Path_6714" data-name="Path 6714" d="M134.72,95.24a.92.92,0,0,1,.639.429.983.983,0,0,1,.107.778.874.874,0,0,1-1.119.53.823.823,0,0,1-.576-.6.855.855,0,0,1,.223-.811.775.775,0,0,1,.707-.323Z" transform="translate(67.914 27.379)" fill="#c1564d"/>
  <g id="Group_7003" data-name="Group 7003" transform="translate(205.922 120.117)" opacity="0.4">
    <path id="Path_6715" data-name="Path 6715" d="M138.425,99.231a1.7,1.7,0,0,1-1.526-.261.4.4,0,0,1-.084-.13c-.386-.9-.283-1.268.122-1.733.293-.342.737-.857.666-3.118a.394.394,0,0,1,.371-.408.388.388,0,0,1,.391.384c.077,2.394-.389,3.125-.888,3.679-.187.218-.234.274-.032.77a1.688,1.688,0,0,0,1.165-.046.366.366,0,0,1,.288.023.379.379,0,0,1,.188.226.4.4,0,0,1-.02.3.384.384,0,0,1-.222.193A3.983,3.983,0,0,1,138.425,99.231Z" transform="translate(-136.573 -93.582)" fill="#d36e63"/>
  </g>
  <path id="Path_6716" data-name="Path 6716" d="M143.627,92.185a.368.368,0,0,1-.229-.03,4.816,4.816,0,0,0-3.177-.25.38.38,0,0,1-.466-.27.389.389,0,0,1,.032-.3.375.375,0,0,1,.226-.185l.041-.007a5.563,5.563,0,0,1,3.691.31.4.4,0,0,1,.194.4.388.388,0,0,1-.294.327Z" transform="translate(70.957 25.209)" fill="#703713"/>
  <path id="Path_6717" data-name="Path 6717" d="M133.2,94.252a.373.373,0,0,1-.479-.2.4.4,0,0,1,.157-.507,5.659,5.659,0,0,1,3.438-1.434.392.392,0,0,1,.036.783,4.868,4.868,0,0,0-2.97,1.227A.458.458,0,0,1,133.2,94.252Z" transform="translate(67.376 25.791)" fill="#703713"/>
  <path id="Path_6718" data-name="Path 6718" d="M131.807,89.726,139,87.375l5.454-.344S140.6,96.5,131.807,89.726Z" transform="translate(66.93 23.209)" fill="#703713"/>
  <path id="Path_6719" data-name="Path 6719" d="M133.73,88.072a.38.38,0,0,1-.43-.3.4.4,0,0,1,.054-.294.378.378,0,0,1,.24-.168,15.481,15.481,0,0,0,8.033-5.026.38.38,0,0,1,.366-.13.388.388,0,0,1,.292.262.41.41,0,0,1-.074.393,16.237,16.237,0,0,1-8.439,5.275Z" transform="translate(67.684 20.729)" fill="#59280e"/>
  <path id="Path_6720" data-name="Path 6720" d="M137.479,89.13a.372.372,0,0,1-.3,0,.39.39,0,0,1-.2-.222.4.4,0,0,1,0-.305.383.383,0,0,1,.214-.211,15.379,15.379,0,0,0,4.183-4.251.388.388,0,0,1,.253-.16.38.38,0,0,1,.289.072.412.412,0,0,1,.084.559,16.211,16.211,0,0,1-4.38,4.452A.518.518,0,0,1,137.479,89.13Z" transform="translate(69.54 21.657)" fill="#59280e"/>
  <path id="Path_6721" data-name="Path 6721" d="M130.917,95.572a.373.373,0,0,1-.419-.21,5.222,5.222,0,0,1-.476-3.109.4.4,0,0,1,.241-.332.376.376,0,0,1,.4.068.4.4,0,0,1,.124.395,4.438,4.438,0,0,0,.4,2.611.4.4,0,0,1,.051.308.391.391,0,0,1-.185.248.319.319,0,0,1-.143.047Z" transform="translate(65.991 25.678)" fill="#59280e"/>
  <path id="Path_6722" data-name="Path 6722" d="M147.538,91.528a.38.38,0,0,1-.339-.1.407.407,0,0,1-.121-.341,7.02,7.02,0,0,0-.243-2.743.4.4,0,0,1,.006-.312.381.381,0,0,1,.228-.207.376.376,0,0,1,.476.244l0,.028a8.035,8.035,0,0,1,.268,3.09A.4.4,0,0,1,147.538,91.528Z" transform="translate(74.546 23.604)" fill="#59280e"/>
  <path id="Path_6723" data-name="Path 6723" d="M144.775,87.816c1.674,3.1.633,7.184.4,10.3-.226,2.887,1.485,3.025,2.049,2.553a2.262,2.262,0,0,0,.443-.67,5.211,5.211,0,0,1,1.9-1.986c-5.252-12.941-3.854-9.545-4.089-10.132Z" transform="translate(73.514 23.61)" fill="#703713"/>
  <path id="Path_6724" data-name="Path 6724" d="M133.53,110.5c2.642,5.565,8.813,5.912,13.952,4.787,13.407-3.3,7.39-20.108,6.541-21.346-.516-.744-1.539-.687-1.827,1-.232,1.376-.452,6.187-.618,6.84-.442,1.695-3.887,2.34-5.333,2.568-4.6.752-9.92.709-11.008-.486a12.817,12.817,0,0,1-2.765-7.075c.048-1.452-1.247-2.039-1.259-.165C130.961,97.668,131.407,106.038,133.53,110.5Z" transform="translate(66.595 26.491)" fill="#703713"/>
  <g id="Group_7004" data-name="Group 7004" transform="translate(200.468 135.903)">
    <path id="Path_6725" data-name="Path 6725" d="M138.328,105.938a.457.457,0,0,0-.427.482,4.586,4.586,0,0,0,1.87,3.518.439.439,0,0,0,.623-.112.469.469,0,0,0-.107-.642,3.654,3.654,0,0,1-1.491-2.806A.453.453,0,0,0,138.328,105.938Z" transform="translate(-130.444 -103.093)" fill="#59280e"/>
    <path id="Path_6726" data-name="Path 6726" d="M133.953,104.71a.444.444,0,0,0-.594.226,4.687,4.687,0,0,0,.095,4.008.441.441,0,0,0,.6.2.469.469,0,0,0,.19-.623,3.734,3.734,0,0,1-.075-3.195A.466.466,0,0,0,133.953,104.71Z" transform="translate(-132.955 -103.737)" fill="#59280e"/>
    <path id="Path_6727" data-name="Path 6727" d="M146.192,104.329a.442.442,0,0,0-.588-.24.466.466,0,0,0-.234.606,4.447,4.447,0,0,0,2.961,2.6.447.447,0,0,0,.544-.333.464.464,0,0,0-.324-.561A3.544,3.544,0,0,1,146.192,104.329Z" transform="translate(-126.67 -104.051)" fill="#59280e"/>
  </g>
  <path id="Path_6728" data-name="Path 6728" d="M135.691,98.781c.789-.957,6.621-1.421,7.691-.777,1.835,1.1,2.924,4.268,2.722,5.052-.1.406-9.953,2.109-11.527.211C133.853,102.36,135.495,99.02,135.691,98.781Z" transform="translate(68.242 28.631)" fill="#703713"/>
  <path id="Path_6729" data-name="Path 6729" d="M138.364,100.976a5.582,5.582,0,0,1-.963.084.4.4,0,0,1,.014-.8,4.286,4.286,0,0,0,3.04-1.253.386.386,0,0,1,.381-.1.4.4,0,0,1,.279.289.42.42,0,0,1-.1.393A5.116,5.116,0,0,1,138.364,100.976Z" transform="translate(69.591 29.235)" fill="#59280e"/>
  <path id="Path_6730" data-name="Path 6730" d="M25.684,84.233c.612-1.119.4-12.093.369-12.114,0-.54-.281-.553-.6-.553-5.411.026-17.6-.181-17.9-.047H7.523a.411.411,0,0,0-.264.1.323.323,0,0,0-.109.233C7,73.6,7.364,82.523,7.364,84.285Z" transform="translate(3.612 15.311)" fill="#4da2f8"/>
  <path id="Path_6731" data-name="Path 6731" d="M26.726,80.863c0-3.857.025-5.9-.025-6.241.033-.38-.071-.639-.419-.618-2.992-.264-7.716-.056-9.061-.238-.18-.25-.369-.993-.561-1.231a13.512,13.512,0,0,1-.838-1.14c-.318-.536-.6-.561-1.714-.523-5.964.181-6.706-.147-7.066.112-.608,1.464-.1,16.386-.063,16.433,0,.708.277.73.6.726,5.411-.026,18.328.251,18.63.073h.025a.36.36,0,0,0,.26-.125.51.51,0,0,0,.113-.307C26.752,85.489,26.726,83.174,26.726,80.863Z" transform="translate(3.425 15)" fill="#63c0f9"/>
  <g id="Group_7005" data-name="Group 7005" transform="translate(11.789 88.145)" opacity="0.6">
    <path id="Path_6732" data-name="Path 6732" d="M9.89,73.223c-.838,0-1.526,0-1.714-.026a.429.429,0,0,1-.356-.458.422.422,0,0,1,.444-.363c.36.039,3.353,0,5.306,0a.436.436,0,0,1,0,.821C13.264,73.189,11.357,73.219,9.89,73.223Z" transform="translate(-7.819 -72.376)" fill="#fff"/>
  </g>
  <path id="Path_6733" data-name="Path 6733" d="M25.684,112.78c.612-1.119.4-12.092.369-12.092,0-.541-.281-.553-.6-.553-5.411.026-17.6-.177-17.9-.044H7.523a.38.38,0,0,0-.264.1.325.325,0,0,0-.109.234c-.151,1.754.214,10.672.214,12.435Z" transform="translate(3.612 29.819)" fill="#4da2f8"/>
  <path id="Path_6734" data-name="Path 6734" d="M26.726,109.418c0-3.857.025-5.9-.025-6.241.033-.38-.071-.639-.419-.617-2.992-.264-7.716-.053-9.061-.234-.18-.255-.369-1-.562-1.235a13.615,13.615,0,0,1-.838-1.141c-.318-.536-.6-.561-1.714-.523-5.964.181-6.706-.147-7.066.112-.608,1.463-.1,16.386-.063,16.434,0,.707.277.73.6.725,5.411-.026,18.328.25,18.63.072h.025a.339.339,0,0,0,.26-.125.506.506,0,0,0,.113-.306C26.751,114.044,26.726,111.73,26.726,109.418Z" transform="translate(3.425 29.5)" fill="#63c0f9"/>
  <g id="Group_7006" data-name="Group 7006" transform="translate(11.648 131.164)" opacity="0.6">
    <path id="Path_6735" data-name="Path 6735" d="M9.937,101.79c-.838,0-1.526,0-1.714-.026a.416.416,0,0,1-.444-.213.441.441,0,0,1,.054-.5.409.409,0,0,1,.478-.107c.36.038,3.353,0,5.306,0a.385.385,0,0,1,.3.109.411.411,0,0,1,.124.3.425.425,0,0,1-.39.431C13.311,101.755,11.4,101.785,9.937,101.79Z" transform="translate(-7.726 -100.908)" fill="#fff"/>
  </g>
  <path id="Path_6736" data-name="Path 6736" d="M25.684,141.645c.612-1.119.4-12.094.369-12.115,0-.54-.281-.553-.6-.553-5.411.023-17.6-.181-17.9-.047H7.523a.408.408,0,0,0-.264.1.32.32,0,0,0-.109.229c-.151,1.757.214,10.675.214,12.433Z" transform="translate(3.612 44.461)" fill="#4da2f8"/>
  <path id="Path_6737" data-name="Path 6737" d="M26.726,138.274c0-3.857.025-5.9-.025-6.241.033-.38-.071-.639-.419-.617-2.992-.264-7.716-.057-9.061-.238-.18-.25-.369-.994-.562-1.23a13.412,13.412,0,0,1-.838-1.141c-.318-.54-.6-.561-1.714-.522-5.964.181-6.706-.146-7.066.112-.608,1.464-.1,16.387-.063,16.433,0,.709.277.727.6.727,5.411-.027,18.328.246,18.63.072h.025a.347.347,0,0,0,.26-.13.482.482,0,0,0,.113-.3C26.751,142.9,26.726,140.581,26.726,138.274Z" transform="translate(3.425 44.153)" fill="#63c0f9"/>
  <g id="Group_7007" data-name="Group 7007" transform="translate(11.789 174.709)" opacity="0.6">
    <path id="Path_6738" data-name="Path 6738" d="M9.89,130.634c-.838,0-1.526,0-1.714-.026a.43.43,0,0,1-.356-.458.421.421,0,0,1,.444-.362c.36.038,3.353,0,5.306,0a.436.436,0,0,1,0,.82C13.264,130.6,11.357,130.63,9.89,130.634Z" transform="translate(-7.819 -129.787)" fill="#fff"/>
  </g>
  <path id="Path_6739" data-name="Path 6739" d="M97.018,69.119c-6.513,1.947-7.771,2.242-14.193,4.154-3.959,1.126-4.58-.17-5.479-1.867a31.155,31.155,0,0,1-1.389-4.385c-.214-2-.034-3.624,4.192-4.76l14.164-4.234c4.4-1.311,4.775.365,5.212,2.4l1.054,3.749c.345,1.241.447,2.6-1.87,3.959A10.259,10.259,0,0,1,97.018,69.119Z" transform="translate(38.541 8.246)" fill="#ff7641"/>
  <path id="Path_6740" data-name="Path 6740" d="M58.854,44.311a2.322,2.322,0,0,1,3.246.4l.071.093L84.179,75.194a2.492,2.492,0,0,1-.482,3.418,2.322,2.322,0,0,1-3.246-.4l-.071-.093L58.373,47.73A2.492,2.492,0,0,1,58.854,44.311Z" transform="translate(29.401 1.272)" fill="#f7beb2"/>
  <path id="Path_6741" data-name="Path 6741" d="M74.237,104.818a2.359,2.359,0,0,0,1.7-.719,2.506,2.506,0,0,0,.7-1.748,2.664,2.664,0,0,0-.087-.681L73.217,89.342a2.407,2.407,0,0,0-2.879-1.4,2.5,2.5,0,0,0-1.75,2.739l3.337,12.333A2.44,2.44,0,0,0,74.237,104.818Z" transform="translate(34.816 23.625)" fill="#ffcdc0"/>
  <path id="Path_6742" data-name="Path 6742" d="M73.52,101.681a2.359,2.359,0,0,0,1.7-.719,2.506,2.506,0,0,0,.7-1.748,2.665,2.665,0,0,0-.087-.681l-1.224-4.5-4.634,1.336,1.229,4.5A2.441,2.441,0,0,0,73.52,101.681Z" transform="translate(35.534 26.764)" fill="#484e69"/>
  <path id="Path_6743" data-name="Path 6743" d="M56.3,109.3a2.466,2.466,0,0,0,2.429-2.5V92.446a2.5,2.5,0,0,0-1.169-2.238,2.343,2.343,0,0,0-2.466,0,2.5,2.5,0,0,0-1.169,2.238v14.385A2.468,2.468,0,0,0,56.3,109.3Z" transform="translate(27.382 24.645)" fill="#ffcdc0"/>
  <path id="Path_6744" data-name="Path 6744" d="M56.31,105.263a2.466,2.466,0,0,0,2.429-2.5V97.815H53.911v4.945A2.468,2.468,0,0,0,56.31,105.263Z" transform="translate(27.375 28.686)" fill="#484e69"/>
  <path id="Path_6745" data-name="Path 6745" d="M60.971,56.862C66.11,60.12,75.057,61.4,78.064,63.2a6.2,6.2,0,0,1,2.152,2.137c3.468,5.756,8.3,35.727,9.345,39.541a.985.985,0,0,1-.461,1.166c-3.206,3.619-11.613,3.308-12.211,2.618-1.248.155-4.425-21.9-6.674-33.259-.554-2.748-8.8-4.39-13.508-6.692L45.419,61.762Z" transform="translate(23.063 7.891)" fill="#59c894"/>
  <path id="Path_6746" data-name="Path 6746" d="M46.77,58.565c5.134,3.258,14.086,8.664,17.087,10.466a6.213,6.213,0,0,1,2.152,2.142c3.468,5.756,3.021,37.238,3.337,39.115.058.41.073,2-.486,2.412-3.944,1.411-12.629.415-13.216-.28,0,0,.19-28.96.18-33.534,0-4.079-4.468-3.9-7.946-6.006-4.439-2.7-8.145-7.818-7.213-13.068l.083-.451Z" transform="translate(20.575 8.756)" fill="#59c894"/>
  <path id="Path_6747" data-name="Path 6747" d="M56.769,45.507A2.324,2.324,0,0,1,60,46.026l.23.33c.147.209.323.454.527.732.59.8,1.284,1.7,2.077,2.668a74.829,74.829,0,0,0,7.729,8.136c6.407,5.78,13.2,9.743,20.12,11.1a2.44,2.44,0,0,1,1.885,2.856A2.375,2.375,0,0,1,89.8,73.793c-7.867-1.544-15.368-5.92-22.356-12.225a79.592,79.592,0,0,1-8.231-8.662c-.762-.932-1.443-1.806-2.036-2.6l-.195-.263c-.389-.529-.66-.914-.807-1.133A2.49,2.49,0,0,1,56.769,45.507Z" transform="translate(28.309 1.905)" fill="#ffcdc0"/>
  <path id="Path_6748" data-name="Path 6748" d="M76.177,14.242S53.568,9.775,44.939,33.916c-10.626,23.139-.073,20.642-.073,20.642s-4.85,12.065,7.165,11.5,29.8-3.831,31.557-11.757c2.058-5.1-3.782-5.051-3.782-5.051s15.285-5,.8-11.285c0,0-6.322-1.741-8.908-5.935S76.186,14.24,76.186,14.24" transform="translate(20.411 -13.916)" fill="#373753"/>
  <path id="Path_6749" data-name="Path 6749" d="M57.435,19.047c20.177-4.777,27.043,25.717,5.853,25.687-15.934-.026-20.816-22.129-5.871-25.675Z" transform="translate(24.591 -11.568)" fill="#ffcdc0"/>
  <path id="Path_6750" data-name="Path 6750" d="M56.572,27.833A.978.978,0,0,0,55.5,28.7a1,1,0,0,0,.012.119.917.917,0,0,0,.945.839,1.017,1.017,0,0,0,.7-.383,1.078,1.078,0,0,0,.226-.779.984.984,0,0,0-.089-.348.864.864,0,0,0-.723-.334Z" transform="translate(28.184 -6.861)" fill="#c0564c"/>
  <path id="Path_6751" data-name="Path 6751" d="M63.635,29.948a1.058,1.058,0,0,0-.853,1.215l.013.124a.966.966,0,0,0,1.16.627,1,1,0,0,0,.711-1.134A.978.978,0,0,0,63.635,29.948Z" transform="translate(31.873 -5.777)" fill="#c0564c"/>
  <path id="Path_6752" data-name="Path 6752" d="M53.565,31.311c-.286,3.992,2.183,5.118,4.574,2.137a.511.511,0,0,0-.069-.672.434.434,0,0,0-.1-.065L54.2,30.951a.479.479,0,0,0-.612.227A.744.744,0,0,0,53.565,31.311Z" transform="translate(27.188 -5.285)" fill="#c0564c"/>
  <path id="Path_6753" data-name="Path 6753" d="M60.185,32.459l.074-.043a.964.964,0,0,0,.427-.6,1.219,1.219,0,0,0-.509-1.062c-.393-.41-.769-.787-.493-1.527l-.006-.065.336-1.878a.38.38,0,0,0-.283-.427.365.365,0,0,0-.409.3l-.36,1.831a2.034,2.034,0,0,0,.668,2.288,1.5,1.5,0,0,1,.324.4.291.291,0,0,1-.115.118,1.708,1.708,0,0,1-1.124.182.36.36,0,0,0-.289.041.424.424,0,0,0-.134.546.36.36,0,0,0,.242.172A2.427,2.427,0,0,0,60.185,32.459Z" transform="translate(29.573 -7.347)" fill="#ec9d8b"/>
  <path id="Path_6754" data-name="Path 6754" d="M63.959,28.167s4.358,7.726,12.386,4.894,6.228-14.208-3.876-17.648a37.788,37.788,0,0,0-9.557-1.426c-1.376.063-2.211.159-2.211.159" transform="translate(30.823 -13.886)" fill="#373753"/>
  <path id="Path_6755" data-name="Path 6755" d="M69.159,25.215s-2.861,5.8-8.84,3.3-3.478-7.047-3.478-7.047l2.523-4.949,12.087,2.148Z" transform="translate(28.6 -12.595)" fill="#373753"/>
  <path id="Path_6756" data-name="Path 6756" d="M50.589,30.854a2.347,2.347,0,0,1-3.546-.763,2.43,2.43,0,0,1,3.794-2.927Z" transform="translate(23.742 -7.504)" fill="#ffbda6"/>
  <path id="Path_6757" data-name="Path 6757" d="M64.128,20.091s-1.179,5.82-6.811,5.72-4.409,7.433-4.409,7.433.717,2.771-2.463,1.47c-.7-.282-.055-1.69-.565-2.621-.6-1.1-1.918.011-2.4-1.25-.986-2.581.64-8.519,3.03-9.89,4.566-2.633,12.793-5.15,14.371-3.187S64.128,20.091,64.128,20.091Z" transform="translate(23.959 -12.318)" fill="#373753"/>
  <path id="Path_6758" data-name="Path 6758" d="M53.767,26.54A3.425,3.425,0,0,0,53.631,31a4.156,4.156,0,0,0,4.92,1.314l.209-.1a4.079,4.079,0,0,0,2.133-3.7,3.492,3.492,0,0,0-2.375-3.266A4.4,4.4,0,0,0,53.767,26.54Zm.413,4a2.656,2.656,0,0,1,.131-3.5,3.409,3.409,0,0,1,1.2-.925,3.709,3.709,0,0,1,2.768-.159,2.774,2.774,0,0,1,1.883,2.609,3.359,3.359,0,0,1-1.746,3A3.43,3.43,0,0,1,54.18,30.536Z" transform="translate(26.848 -8.285)" fill="#494e6a"/>
  <path id="Path_6759" data-name="Path 6759" d="M61.107,28.713a3.419,3.419,0,0,0-.141,4.464,4.151,4.151,0,0,0,4.913,1.29l.21-.1a4.068,4.068,0,0,0,2.139-3.689,3.492,3.492,0,0,0-2.37-3.266A4.4,4.4,0,0,0,61.107,28.713Zm.4,3.983a2.656,2.656,0,0,1,.131-3.5,3.447,3.447,0,0,1,1.219-.927,3.747,3.747,0,0,1,2.772-.159,2.769,2.769,0,0,1,1.882,2.6,3.367,3.367,0,0,1-1.779,3.006A3.43,3.43,0,0,1,61.5,32.7Z" transform="translate(30.571 -7.181)" fill="#494e6a"/>
  <path id="Path_6760" data-name="Path 6760" d="M62.305,29.627a.436.436,0,0,0,.152-.132.382.382,0,0,0-.1-.517,6.88,6.88,0,0,0-4.383-1.267.376.376,0,0,0,.081.746,6.3,6.3,0,0,1,3.906,1.137A.365.365,0,0,0,62.305,29.627Z" transform="translate(29.274 -6.918)" fill="#494e6a"/>
  <path id="Path_6761" data-name="Path 6761" d="M55.581,27.979a.378.378,0,0,0,.2-.394.37.37,0,0,0-.306-.314L48.9,26.277a.347.347,0,0,0-.264.069.368.368,0,0,0-.139.242.379.379,0,0,0,.3.42l6.542.982A.388.388,0,0,0,55.581,27.979Z" transform="translate(24.626 -7.642)" fill="#494e6a"/>
  <path id="Path_6762" data-name="Path 6762" d="M67.261,31.831a.391.391,0,0,0,.189-.207.379.379,0,0,0-.205-.481l-1.671-.675a.342.342,0,0,0-.346.058.367.367,0,0,0-.124.338.359.359,0,0,0,.222.28l1.666.68A.378.378,0,0,0,67.261,31.831Z" transform="translate(33.056 -5.523)" fill="#494e6a"/>
  <g id="Group_7008" data-name="Group 7008" transform="translate(81.694 7.196)">
    <path id="Path_6763" data-name="Path 6763" d="M64.887,18.771a.436.436,0,0,1,.619.112l.077.12a6.671,6.671,0,0,1,.4.775,6.479,6.479,0,0,1,.314,4.83,7.71,7.71,0,0,1-3.426,3.932.437.437,0,0,1-.61-.154.466.466,0,0,1,.15-.629,6.821,6.821,0,0,0,3.05-3.456,5.568,5.568,0,0,0-.286-4.141,6.253,6.253,0,0,0-.283-.563l-.058-.1c-.025-.041-.044-.071-.056-.089A.467.467,0,0,1,64.887,18.771Z" transform="translate(-50.111 -18.688)" fill="#0b0e1f"/>
    <path id="Path_6764" data-name="Path 6764" d="M58.776,20.707a.455.455,0,0,1,.384-.512.445.445,0,0,1,.488.343l.01.06a2.845,2.845,0,0,1-.021.68,3.656,3.656,0,0,1-.479,1.373c-.736,1.244-2.185,2.1-4.479,2.382a.448.448,0,0,1-.494-.4.455.455,0,0,1,.389-.509c2.039-.251,3.242-.961,3.826-1.949a2.722,2.722,0,0,0,.358-1.024,2.144,2.144,0,0,0,.021-.406Z" transform="translate(-54.181 -17.925)" fill="#0b0e1f"/>
  </g>
  <g id="Group_7009" data-name="Group 7009" transform="translate(61.536 68.51)" opacity="0.3">
    <path id="Path_6765" data-name="Path 6765" d="M41.25,64.436a6.745,6.745,0,0,0,6.193-4.56.409.409,0,0,0-.238-.5.4.4,0,0,0-.51.255,5.907,5.907,0,0,1-5.435,4,.4.4,0,0,0-.386.192.426.426,0,0,0,0,.441.4.4,0,0,0,.386.192Z" transform="translate(-40.812 -59.354)" fill="#252551"/>
    <path id="Path_6766" data-name="Path 6766" d="M59.181,67.882a.406.406,0,0,0,.345-.205.411.411,0,0,0,.046-.307.4.4,0,0,0-.182-.248c-1.681-1-3.886-2.452-5.5-3.584a.41.41,0,0,0-.563.11.434.434,0,0,0,.107.58c1.622,1.131,3.856,2.583,5.556,3.6A.346.346,0,0,0,59.181,67.882Z" transform="translate(-34.491 -57.264)" fill="#252551"/>
  </g>
  <path id="Path_6767" data-name="Path 6767" d="M58.409,39.5s7.888,6.617,9,10.406c-.583,3.5-6.314,5.245-6.314,5.245s-2.943,1.872-6.11-5.506" transform="translate(27.918 -0.926)" fill="#f9bd38"/>
  <path id="Path_6768" data-name="Path 6768" d="M40.623,69.392s4.857-26.5,16.6-30.406,11.293,9.2,11.293,9.2L66.424,67.64s-.1,3.914-14.421,3.5S40.623,69.392,40.623,69.392Z" transform="translate(20.501 -1.556)" fill="#ffc63c"/>
  <path id="Path_6769" data-name="Path 6769" d="M52.161,41.542s12.376,6.006,14.2,9.51c.107,3.544-5.163,6.437-5.163,6.437S58.247,59.9,53.711,53.34" transform="translate(26.486 0.112)" fill="#ffc63c"/>
  <path id="Path_6770" data-name="Path 6770" d="M49.418,47.267a.422.422,0,0,1,.643-.078l.348.318.294.264c.2.182.425.377.661.581,1.009.875,2.075,1.75,3.149,2.566.787.6,1.548,1.14,2.275,1.616,2.7,1.772,4.7,2.461,5.555,1.826a.422.422,0,0,1,.6.1.452.452,0,0,1-.1.618c-1.272.95-3.5.181-6.521-1.8C55.583,52.8,54.8,52.241,54,51.632c-1.09-.828-2.171-1.715-3.192-2.6l-.347-.3-.323-.286-.289-.259-.7,1.047a.423.423,0,0,1-.551.144l-.046-.029a.451.451,0,0,1-.139-.568l.028-.048Z" transform="translate(24.563 2.92)" fill="#ce8d4f"/>
  <path id="Path_6771" data-name="Path 6771" d="M59.658,44.3a47.012,47.012,0,0,1,.84-7.8.6.6,0,0,0-.345-.731c-4.488-.911-4.954-1.261-5.168-.606-1.4,4.354-2.03,4.079-3.172,7.353C51.813,42.516,56.369,45.379,59.658,44.3Z" transform="translate(26.31 -3.299)" fill="#ffcdc0"/>
</svg>
