<svg id="Component_536_1" data-name="Component 536 – 1" xmlns="http://www.w3.org/2000/svg" xmlns:xlink="http://www.w3.org/1999/xlink" width="254.388" height="22.773" viewBox="0 0 254.388 22.773">
  <defs>
    <clipPath id="clip-path">
      <rect id="Rectangle_1051" data-name="Rectangle 1051" width="254.388" height="22.773" fill="#fff"/>
    </clipPath>
  </defs>
  <path id="Path_7631" data-name="Path 7631" d="M14.255,1.5V18.285L2.868,1.5H0V22.756H2.868V5.885l11.3,16.786h2.952V1.5Z" transform="translate(0 -0.234)" fill="#fff"/>
  <g id="Group_12253" data-name="Group 12253">
    <g id="Group_12252" data-name="Group 12252" clip-path="url(#clip-path)">
      <path id="Path_7632" data-name="Path 7632" d="M24.8,10.649A7.435,7.435,0,0,1,27.664,7.7,8.632,8.632,0,0,1,31.8,6.6a8,8,0,0,1,3.88.928,6.015,6.015,0,0,1,2.446,2.362V6.853h2.868V23.469H38.123V20.433a7.053,7.053,0,0,1-2.53,2.446,7.158,7.158,0,0,1-3.88.928,7.781,7.781,0,0,1-4.133-1.1A9.148,9.148,0,0,1,24.8,19.589a9.73,9.73,0,0,1-1.1-4.47,10.586,10.586,0,0,1,1.1-4.47m12.652,1.265A5.082,5.082,0,0,0,35.34,9.805a5.7,5.7,0,0,0-2.952-.759,5.4,5.4,0,0,0-2.868.759,5.622,5.622,0,0,0-2.109,2.109,6.769,6.769,0,0,0-.759,3.289,6.769,6.769,0,0,0,.759,3.289,5.286,5.286,0,0,0,2.109,2.193,5.609,5.609,0,0,0,2.868.759,6.154,6.154,0,0,0,2.952-.759,5.3,5.3,0,0,0,2.109-2.193,7,7,0,0,0,.759-3.289,6.769,6.769,0,0,0-.759-3.289" transform="translate(-3.71 -1.033)" fill="#fff"/>
      <path id="Path_7633" data-name="Path 7633" d="M52.176,8.395v9.784a2.239,2.239,0,0,0,.506,1.687,2.571,2.571,0,0,0,1.856.506h2.109v2.362h-2.53a4.826,4.826,0,0,1-3.543-1.1,4.5,4.5,0,0,1-1.181-3.458V8.395H47.2V6.117h2.193V1.9h2.868V6.117h4.47V8.395Z" transform="translate(-7.389 -0.297)" fill="#fff"/>
      <path id="Path_7634" data-name="Path 7634" d="M73.493,6.326a5.7,5.7,0,0,1,2.446,2.446,8,8,0,0,1,.928,3.88v9.784H74.083V13.074a5.155,5.155,0,0,0-1.265-3.8,4.769,4.769,0,0,0-3.458-1.35,4.52,4.52,0,0,0-3.543,1.35,5.766,5.766,0,0,0-1.35,3.964v9.194H61.6V0h2.868V8.182a5.627,5.627,0,0,1,2.277-1.94,8.178,8.178,0,0,1,3.29-.675,7.714,7.714,0,0,1,3.458.759" transform="translate(-9.643)" fill="#fff"/>
      <path id="Path_7635" data-name="Path 7635" d="M83.981,10.649A7.435,7.435,0,0,1,86.849,7.7a8.632,8.632,0,0,1,4.133-1.1,8,8,0,0,1,3.88.928,6.015,6.015,0,0,1,2.446,2.362V6.853h2.868V23.469H97.308V20.433a7.053,7.053,0,0,1-2.53,2.446,7.159,7.159,0,0,1-3.88.928,7.781,7.781,0,0,1-4.133-1.1A7.632,7.632,0,0,1,83.9,19.674a9.73,9.73,0,0,1-1.1-4.47,12.04,12.04,0,0,1,1.181-4.555m12.652,1.265a5.082,5.082,0,0,0-2.109-2.109,5.7,5.7,0,0,0-2.952-.759,5.4,5.4,0,0,0-2.868.759A5.622,5.622,0,0,0,86.6,11.914a6.769,6.769,0,0,0-.759,3.289,6.769,6.769,0,0,0,.759,3.289A5.286,5.286,0,0,0,88.7,20.686a5.609,5.609,0,0,0,2.868.759,6.154,6.154,0,0,0,2.952-.759,5.3,5.3,0,0,0,2.109-2.193,7,7,0,0,0,.759-3.289,6.769,6.769,0,0,0-.759-3.289" transform="translate(-12.961 -1.033)" fill="#fff"/>
      <path id="Path_7636" data-name="Path 7636" d="M121.627,8.371a7.072,7.072,0,0,1,1.94,5.314v9.784h-2.783V14.107a5.155,5.155,0,0,0-1.265-3.8,4.769,4.769,0,0,0-3.458-1.35,4.52,4.52,0,0,0-3.543,1.35,5.766,5.766,0,0,0-1.35,3.964v9.194H108.3V6.853h2.868V9.215a5.628,5.628,0,0,1,2.277-1.94A7.771,7.771,0,0,1,116.65,6.6a7.047,7.047,0,0,1,4.976,1.771" transform="translate(-16.953 -1.033)" fill="#fff"/>
      <path id="Path_7637" data-name="Path 7637" d="M156.281,22.608l-2.868-2.783a10.7,10.7,0,0,1-3.374,2.362,10.193,10.193,0,0,1-4.049.759,9.776,9.776,0,0,1-3.964-.759,5.962,5.962,0,0,1-2.7-2.277,5.82,5.82,0,0,1-.928-3.374,6.124,6.124,0,0,1,1.265-3.88,8.044,8.044,0,0,1,3.8-2.615,8.482,8.482,0,0,1-1.434-2.109,5.873,5.873,0,0,1-.422-2.109,4.838,4.838,0,0,1,.675-2.446A4.469,4.469,0,0,1,144.3,1.69a6.733,6.733,0,0,1,3.036-.59,6.617,6.617,0,0,1,2.952.675,4.2,4.2,0,0,1,1.856,1.771,5.094,5.094,0,0,1,.59,2.53h-2.868a2.7,2.7,0,0,0-.675-1.94,2.61,2.61,0,0,0-1.94-.675,3.078,3.078,0,0,0-2.024.675,2.178,2.178,0,0,0-.759,1.771,3.543,3.543,0,0,0,.506,1.771,14,14,0,0,0,1.687,2.109l6.495,6.326.59-.843,2.109-3.458H158.9l-2.53,4.3a18.742,18.742,0,0,1-1.265,1.94l4.892,4.808h-3.711Zm-7.254-2.615a7.825,7.825,0,0,0,2.53-1.94l-6.41-6.242c-2.615,1.012-3.964,2.53-3.964,4.723a3.637,3.637,0,0,0,1.35,2.952,5.047,5.047,0,0,0,3.458,1.181,7.276,7.276,0,0,0,3.036-.675" transform="translate(-21.665 -0.172)" fill="#fff"/>
      <path id="Path_7638" data-name="Path 7638" d="M192.222,22.671h-2.868L177.968,5.8V22.671H175.1V1.5h2.868l11.387,16.869V1.5h2.868Z" transform="translate(-27.41 -0.235)" fill="#fff"/>
      <path id="Path_7639" data-name="Path 7639" d="M199.981,10.649A7.115,7.115,0,0,1,202.933,7.7a8.632,8.632,0,0,1,4.133-1.1,8,8,0,0,1,3.88.928,6.015,6.015,0,0,1,2.446,2.362V6.853h2.868V23.469h-2.952V20.433a7.053,7.053,0,0,1-2.53,2.446,7.158,7.158,0,0,1-3.88.928,7.781,7.781,0,0,1-4.133-1.1,7.631,7.631,0,0,1-2.868-3.036,9.73,9.73,0,0,1-1.1-4.47,9.581,9.581,0,0,1,1.181-4.555m12.568,1.265a5.082,5.082,0,0,0-2.109-2.109,5.7,5.7,0,0,0-2.952-.759,5.4,5.4,0,0,0-2.868.759,5.622,5.622,0,0,0-2.109,2.109,6.769,6.769,0,0,0-.759,3.289,6.769,6.769,0,0,0,.759,3.289,5.286,5.286,0,0,0,2.109,2.193,5.609,5.609,0,0,0,2.868.759,6.154,6.154,0,0,0,2.952-.759,5.3,5.3,0,0,0,2.109-2.193,6.769,6.769,0,0,0,.759-3.289,6.769,6.769,0,0,0-.759-3.289" transform="translate(-31.12 -1.033)" fill="#fff"/>
      <path id="Path_7640" data-name="Path 7640" d="M227.376,8.395v9.784a2.239,2.239,0,0,0,.506,1.687,2.571,2.571,0,0,0,1.856.506h2.109v2.362h-2.53a4.826,4.826,0,0,1-3.543-1.1,4.5,4.5,0,0,1-1.181-3.458V8.395H222.4V6.117h2.193V1.9h2.868V6.117h4.47V8.395Z" transform="translate(-34.814 -0.297)" fill="#fff"/>
      <path id="Path_7641" data-name="Path 7641" d="M248.693,6.326a5.7,5.7,0,0,1,2.446,2.446,8,8,0,0,1,.928,3.88v9.784h-2.783V13.074a5.155,5.155,0,0,0-1.265-3.8,4.769,4.769,0,0,0-3.458-1.35,4.52,4.52,0,0,0-3.543,1.35,5.766,5.766,0,0,0-1.35,3.964v9.194H236.8V0h2.868V8.182a5.628,5.628,0,0,1,2.277-1.94,7.2,7.2,0,0,1,3.289-.675,7.714,7.714,0,0,1,3.458.759" transform="translate(-37.069)" fill="#fff"/>
      <path id="Path_7642" data-name="Path 7642" d="M259.2,10.649A7.115,7.115,0,0,1,262.149,7.7a8.632,8.632,0,0,1,4.133-1.1,8,8,0,0,1,3.88.928,6.015,6.015,0,0,1,2.446,2.362V6.853h2.868V23.469h-2.868V20.433a7.053,7.053,0,0,1-2.53,2.446,7.158,7.158,0,0,1-3.88.928,7.781,7.781,0,0,1-4.133-1.1,7.632,7.632,0,0,1-2.868-3.036,9.73,9.73,0,0,1-1.1-4.47,10.662,10.662,0,0,1,1.1-4.555m12.568,1.265a5.082,5.082,0,0,0-2.109-2.109,5.7,5.7,0,0,0-2.952-.759,5.4,5.4,0,0,0-2.868.759,5.622,5.622,0,0,0-2.109,2.109,6.769,6.769,0,0,0-.759,3.289,6.769,6.769,0,0,0,.759,3.289,5.286,5.286,0,0,0,2.109,2.193,5.609,5.609,0,0,0,2.868.759,6.154,6.154,0,0,0,2.952-.759,5.3,5.3,0,0,0,2.109-2.193,6.769,6.769,0,0,0,.759-3.289,5.31,5.31,0,0,0-.759-3.289" transform="translate(-40.403 -1.033)" fill="#fff"/>
      <path id="Path_7643" data-name="Path 7643" d="M296.827,8.371a7.072,7.072,0,0,1,1.94,5.314v9.784h-2.783V14.107a5.155,5.155,0,0,0-1.265-3.8,4.769,4.769,0,0,0-3.458-1.35,4.52,4.52,0,0,0-3.543,1.35,5.766,5.766,0,0,0-1.35,3.964v9.194H283.5V6.853h2.868V9.215a5.628,5.628,0,0,1,2.277-1.94A6.629,6.629,0,0,1,291.85,6.6a7.339,7.339,0,0,1,4.976,1.771" transform="translate(-44.379 -1.033)" fill="#fff"/>
    </g>
  </g>
</svg>
