<svg id="Component_521_2" data-name="Component 521 – 2" xmlns="http://www.w3.org/2000/svg" width="33.75" height="33.75" viewBox="0 0 33.75 33.75">
  <g id="eye_shield-security_bulk" data-name="eye/shield-security/bulk">
    <g id="vuesax_bulk_shield-security" data-name="vuesax/bulk/shield-security">
      <g id="shield-security">
        <path id="Vector" d="M10.42.22l-7.734,2.9A4.487,4.487,0,0,0,0,7.012V18.4a4.669,4.669,0,0,0,1.659,3.319L9.394,27.5a4.386,4.386,0,0,0,4.964,0l7.734-5.78A4.7,4.7,0,0,0,23.752,18.4V7.012A4.466,4.466,0,0,0,21.066,3.13L13.331.234A4.781,4.781,0,0,0,10.42.22Z" transform="translate(4.992 2.748)" fill="#5c7eef" opacity="0.4"/>
        <path id="Vector-2" data-name="Vector" d="M7.031,3.522a3.516,3.516,0,1,0-4.57,3.333v3.7a1.055,1.055,0,0,0,2.109,0v-3.7A3.5,3.5,0,0,0,7.031,3.522Z" transform="translate(13.359 11.244)" fill="#5c7eef"/>
        <path id="Vector-3" data-name="Vector" d="M0,0H33.75V33.75H0Z" fill="none" opacity="0"/>
      </g>
    </g>
  </g>
</svg>
