<svg id="Component_521_1" data-name="Component 521 – 1" xmlns="http://www.w3.org/2000/svg" width="24" height="24" viewBox="0 0 24 24">
  <g id="eye_shield-security_bulk" data-name="eye/shield-security/bulk">
    <g id="vuesax_bulk_shield-security" data-name="vuesax/bulk/shield-security">
      <g id="shield-security">
        <path id="Vector" d="M7.41.156l-5.5,2.06A3.191,3.191,0,0,0,0,4.986v8.1a3.32,3.32,0,0,0,1.18,2.36l5.5,4.11a3.119,3.119,0,0,0,3.53,0l5.5-4.11a3.339,3.339,0,0,0,1.18-2.36v-8.1a3.176,3.176,0,0,0-1.91-2.76L9.48.166A3.4,3.4,0,0,0,7.41.156Z" transform="translate(3.55 1.954)" fill="#5c7eef" opacity="0.4"/>
        <path id="Vector-2" data-name="Vector" d="M5,2.5A2.5,2.5,0,1,0,1.75,4.87V7.5a.75.75,0,0,0,1.5,0V4.87A2.488,2.488,0,0,0,5,2.5Z" transform="translate(9.5 8)" fill="#5c7eef"/>
        <path id="Vector-3" data-name="Vector" d="M0,0H24V24H0Z" fill="none" opacity="0"/>
      </g>
    </g>
  </g>
</svg>
