<svg id="Component_520_1" data-name="Component 520 – 1" xmlns="http://www.w3.org/2000/svg" width="24.253" height="24.253" viewBox="0 0 24.253 24.253">
  <g id="Group_12257" data-name="Group 12257" transform="translate(-934 -1094.311)">
    <g id="eye_security-user_bulk" data-name="eye/security-user/bulk" transform="translate(934 1094.311)">
      <g id="vuesax_bulk_security-user" data-name="vuesax/bulk/security-user">
        <g id="security-user">
          <path id="Vector" d="M0,0H24.253V24.253H0Z" fill="none" opacity="0"/>
          <g id="Group" transform="translate(3.446 2.019)">
            <path id="Vector-2" data-name="Vector" d="M7.155.235,2.112,2.125A3.509,3.509,0,0,0,0,5.176v7.508a4.913,4.913,0,0,0,1.748,3.476L6.094,19.4a4.6,4.6,0,0,0,5.194,0l4.345-3.244a4.913,4.913,0,0,0,1.748-3.476V5.176a3.509,3.509,0,0,0-2.112-3.052L10.227.235A5.138,5.138,0,0,0,7.155.235Z" fill="#5c7eef" opacity="0.4"/>
          </g>
          <g id="Group-2" data-name="Group" transform="translate(9.004 7.104)">
            <path id="Vector-3" data-name="Vector" d="M2.142,4.315h.1A2.158,2.158,0,1,0,0,2.163,2.185,2.185,0,0,0,2.142,4.315Z" transform="translate(0.879)" fill="#5c7eef"/>
            <path id="Vector-4" data-name="Vector" d="M5.336.606A4.361,4.361,0,0,0,.9.606,1.858,1.858,0,0,0,0,2.1,1.8,1.8,0,0,0,.9,3.587,4.1,4.1,0,0,0,3.112,4.2a3.986,3.986,0,0,0,2.213-.616,1.858,1.858,0,0,0,.9-1.5A1.769,1.769,0,0,0,5.336.606Z" transform="translate(0 5.841)" fill="#5c7eef"/>
          </g>
        </g>
      </g>
    </g>
  </g>
</svg>
