<svg width="25" height="24" viewBox="0 0 25 24" fill="none" xmlns="http://www.w3.org/2000/svg">
<path d="M3.66003 22C3.66003 18.13 7.51003 15 12.25 15C13.21 15 14.14 15.13 15.01 15.37M19.74 17.98H16.76M18.25 16.52V19.51M17.25 7C17.25 9.76142 15.0115 12 12.25 12C9.48861 12 7.25003 9.76142 7.25003 7C7.25003 4.23858 9.48861 2 12.25 2C15.0115 2 17.25 4.23858 17.25 7ZM22.25 18C22.25 18.32 22.21 18.63 22.13 18.93C22.04 19.33 21.88 19.72 21.67 20.06C20.98 21.22 19.71 22 18.25 22C17.22 22 16.29 21.61 15.59 20.97C15.29 20.71 15.03 20.4 14.83 20.06C14.46 19.46 14.25 18.75 14.25 18C14.25 16.92 14.68 15.93 15.38 15.21C16.11 14.46 17.13 14 18.25 14C19.43 14 20.5 14.51 21.22 15.33C21.86 16.04 22.25 16.98 22.25 18Z" stroke="#4DABF7" stroke-width="1.5" stroke-miterlimit="10" stroke-linecap="round" stroke-linejoin="round"/>
</svg>
