<?xml version="1.0" encoding="UTF-8"?>
<!DOCTYPE svg PUBLIC "-//W3C//DTD SVG 1.1//EN" "http://www.w3.org/Graphics/SVG/1.1/DTD/svg11.dtd">
<svg xmlns="http://www.w3.org/2000/svg" version="1.1" width="48px" height="42px" style="shape-rendering:geometricPrecision; text-rendering:geometricPrecision; image-rendering:optimizeQuality; fill-rule:evenodd; clip-rule:evenodd" xmlns:xlink="http://www.w3.org/1999/xlink">
<g><path style="opacity:1" fill="#fdfdfd" d="M -0.5,-0.5 C 15.5,-0.5 31.5,-0.5 47.5,-0.5C 47.5,13.5 47.5,27.5 47.5,41.5C 31.5,41.5 15.5,41.5 -0.5,41.5C -0.5,27.5 -0.5,13.5 -0.5,-0.5 Z"/></g>
<g><path style="opacity:1" fill="#90969d" d="M 29.5,8.5 C 32.6852,8.01964 35.5185,8.68631 38,10.5C 38.6667,17.8333 38.6667,25.1667 38,32.5C 36.7009,33.9797 35.0342,34.6464 33,34.5C 25.8504,33.7972 18.6838,33.2972 11.5,33C 10.6667,32.1667 9.83333,31.3333 9,30.5C 8.33333,24.5 8.33333,18.5 9,12.5C 9.83333,11.6667 10.6667,10.8333 11.5,10C 17.6807,9.82757 23.6807,9.32757 29.5,8.5 Z"/></g>
<g><path style="opacity:1" fill="#f9fafa" d="M 30.5,11.5 C 32.1667,11.5 33.8333,11.5 35.5,11.5C 35.5,18.1667 35.5,24.8333 35.5,31.5C 33.8333,31.5 32.1667,31.5 30.5,31.5C 30.5,24.8333 30.5,18.1667 30.5,11.5 Z"/></g>
<g><path style="opacity:1" fill="#edeeef" d="M 12.5,12.5 C 17.5,12.5 22.5,12.5 27.5,12.5C 27.5,18.5 27.5,24.5 27.5,30.5C 22.2384,30.8047 17.0717,30.4714 12,29.5C 11.2153,23.7507 11.3819,18.084 12.5,12.5 Z"/></g>
<g><path style="opacity:1" fill="#92989e" d="M 14.5,14.5 C 17.8333,14.5 21.1667,14.5 24.5,14.5C 24.5,16.8333 24.5,19.1667 24.5,21.5C 21.1667,21.5 17.8333,21.5 14.5,21.5C 14.5,19.1667 14.5,16.8333 14.5,14.5 Z"/></g>
<g><path style="opacity:1" fill="#90969d" d="M 14.5,22.5 C 16.4646,22.9483 16.7979,23.9483 15.5,25.5C 14.6143,24.675 14.281,23.675 14.5,22.5 Z"/></g>
<g><path style="opacity:1" fill="#90969d" d="M 18.5,22.5 C 20.4646,22.9483 20.7979,23.9483 19.5,25.5C 18.6143,24.675 18.281,23.675 18.5,22.5 Z"/></g>
<g><path style="opacity:1" fill="#90969d" d="M 22.5,22.5 C 24.4646,22.9483 24.7979,23.9483 23.5,25.5C 22.6143,24.675 22.281,23.675 22.5,22.5 Z"/></g>
<g><path style="opacity:1" fill="#90969d" d="M 14.5,26.5 C 16.4646,26.9483 16.7979,27.9483 15.5,29.5C 14.6143,28.675 14.281,27.675 14.5,26.5 Z"/></g>
<g><path style="opacity:1" fill="#90969d" d="M 18.5,26.5 C 20.4646,26.9483 20.7979,27.9483 19.5,29.5C 18.6143,28.675 18.281,27.675 18.5,26.5 Z"/></g>
<g><path style="opacity:1" fill="#90969d" d="M 22.5,26.5 C 24.4646,26.9483 24.7979,27.9483 23.5,29.5C 22.6143,28.675 22.281,27.675 22.5,26.5 Z"/></g>
</svg>
