<svg width="273" height="164" viewBox="0 0 273 164" fill="none" xmlns="http://www.w3.org/2000/svg">
<path d="M103.31 0.869629V128.19L27.2355 1.34938L26.9411 0.869629H0.5V163.594H22.656V36.3934L100.169 163.594H125.455V0.869629H103.31Z" fill="url(#paint0_linear_3617_9183)"/>
<path d="M240.487 117.57L225.211 131.472H256.079V149.681H187.42L246.833 95.752C250.115 93.2878 253.212 90.7037 256.025 88.0759C259.045 85.2628 261.695 82.1444 263.93 78.797C266.198 75.3842 267.986 71.5679 269.24 67.4573C270.483 63.3576 271.115 58.7781 271.115 53.8388C271.115 24.6281 242.613 0.858398 207.591 0.858398C172.569 0.858398 144.176 24.8026 144.176 54.2204V61.1768H195.401V54.2204C195.401 51.3637 196.775 48.6923 199.261 46.7078C201.78 44.7016 205.105 43.6657 208.627 43.7966C214.766 44.0365 220.37 48.6923 220.621 53.7624C220.621 53.8824 220.621 54.0023 220.632 54.1113C220.665 56.5974 219.356 59.0943 217.045 60.9479L210.055 66.5741C208.681 67.6754 207.329 68.8311 206.043 69.9978L144.416 125.9L144.242 144.349L219.073 78.5135L228.384 71.0337C233.978 66.5305 237.151 60.3155 237.074 53.9805C237.074 53.7188 237.074 53.4462 237.053 53.1736C236.758 47.253 233.694 41.5505 228.417 37.1345C223.172 32.7404 216.412 30.178 209.379 29.9055C201.398 29.5893 193.787 31.9662 187.997 36.5784C184.29 39.5333 181.586 43.2187 180.158 47.2639H161.338C163.017 39.3806 167.499 32.1843 174.357 26.3945C183.254 18.8929 195.063 14.7495 207.591 14.7495C233.563 14.7495 254.684 32.2715 254.684 53.8169C254.684 57.5896 254.226 60.9915 253.321 63.9572C252.427 66.8903 251.173 69.5835 249.603 71.9387C247.978 74.3811 246.037 76.6599 243.845 78.6989C241.436 80.945 238.775 83.1693 235.864 85.3609L144.59 163.572H272.5V117.548H240.476L240.487 117.57Z" fill="url(#paint1_linear_3617_9183)"/>
<defs>
<linearGradient id="paint0_linear_3617_9183" x1="-50.9866" y1="-25.6151" x2="170.039" y2="183.548" gradientUnits="userSpaceOnUse">
<stop offset="0.21" stop-color="#3EB4BC"/>
<stop offset="0.53" stop-color="#3399CC"/>
<stop offset="0.56" stop-color="#3A92C7"/>
<stop offset="1" stop-color="#963C8F"/>
</linearGradient>
<linearGradient id="paint1_linear_3617_9183" x1="170.465" y1="159.712" x2="255.643" y2="30.0363" gradientUnits="userSpaceOnUse">
<stop offset="0.06" stop-color="#3EB4BC"/>
<stop offset="0.53" stop-color="#3399CC"/>
<stop offset="0.55" stop-color="#3A92C7"/>
<stop offset="0.93" stop-color="#963C8F"/>
</linearGradient>
</defs>
</svg>
