<?xml version="1.0" encoding="UTF-8"?>
<!DOCTYPE svg PUBLIC "-//W3C//DTD SVG 1.1//EN" "http://www.w3.org/Graphics/SVG/1.1/DTD/svg11.dtd">
<svg xmlns="http://www.w3.org/2000/svg" version="1.1" width="188px" height="150px" style="shape-rendering:geometricPrecision; text-rendering:geometricPrecision; image-rendering:optimizeQuality; fill-rule:evenodd; clip-rule:evenodd" xmlns:xlink="http://www.w3.org/1999/xlink">
<g><path style="opacity:1" fill="#fefefe" d="M -0.5,-0.5 C 62.1667,-0.5 124.833,-0.5 187.5,-0.5C 187.5,49.5 187.5,99.5 187.5,149.5C 124.833,149.5 62.1667,149.5 -0.5,149.5C -0.5,99.5 -0.5,49.5 -0.5,-0.5 Z"/></g>
<g><path style="opacity:1" fill="#ebeefb" d="M 84.5,7.5 C 120.633,6.62843 144.133,23.2951 155,57.5C 157.59,72.7831 155.59,87.4498 149,101.5C 129.5,99.6667 120.667,108.5 122.5,128C 88.9945,142.268 61.1612,135.101 39,106.5C 23.3409,79.0794 25.3409,53.0794 45,28.5C 55.9086,17.1305 69.0752,10.1305 84.5,7.5 Z"/></g>
<g><path style="opacity:1" fill="#4386e6" d="M 108.5,85.5 C 105.401,76.1879 101.734,67.1879 97.5,58.5C 97.5,58.1667 97.5,57.8333 97.5,57.5C 105.299,43.9035 112.633,44.2369 119.5,58.5C 115.612,67.5197 111.945,76.5197 108.5,85.5 Z"/></g>
<g><path style="opacity:1" fill="#d03146" d="M 76.5,59.5 C 80.3922,67.9512 83.7256,76.6179 86.5,85.5C 85.3687,93.8052 80.7021,97.3052 72.5,96C 69.2985,93.1023 66.9652,89.6023 65.5,85.5C 68.8018,76.5695 72.4685,67.9028 76.5,59.5 Z"/></g>
<g><path style="opacity:1" fill="#66da8a" d="M 97.5,58.5 C 101.734,67.1879 105.401,76.1879 108.5,85.5C 106.714,93.147 102.047,96.647 94.5,96C 90.7812,93.388 88.4478,89.888 87.5,85.5C 90.8333,76.5 94.1667,67.5 97.5,58.5 Z"/></g>
<g><path style="opacity:1" fill="#586cd6" d="M 97.5,57.5 C 97.5,57.8333 97.5,58.1667 97.5,58.5C 94.1667,67.5 90.8333,76.5 87.5,85.5C 87.1667,85.5 86.8333,85.5 86.5,85.5C 83.7256,76.6179 80.3922,67.9512 76.5,59.5C 77.8351,51.3121 82.5018,47.4787 90.5,48C 93.8233,50.4825 96.1566,53.6492 97.5,57.5 Z"/></g>
<g><path style="opacity:1" fill="#f2ce49" d="M 84.5,49.5 C 90.8369,49.1657 94.5036,52.1657 95.5,58.5C 92.9615,65.6145 90.1282,72.6145 87,79.5C 84.0282,72.3894 81.1948,65.2227 78.5,58C 79.9273,54.7431 81.9273,51.9097 84.5,49.5 Z"/></g>
<g><path style="opacity:1" fill="#60b05c" d="M 135.5,103.5 C 150.314,102.813 157.147,109.813 156,124.5C 150.638,135.431 142.472,138.265 131.5,133C 124.086,126.705 122.586,119.205 127,110.5C 129.441,107.546 132.275,105.213 135.5,103.5 Z"/></g>
</svg>
