<?xml version="1.0" encoding="UTF-8"?>
<!DOCTYPE svg PUBLIC "-//W3C//DTD SVG 1.1//EN" "http://www.w3.org/Graphics/SVG/1.1/DTD/svg11.dtd">
<svg xmlns="http://www.w3.org/2000/svg" version="1.1" width="56px" height="60px" style="shape-rendering:geometricPrecision; text-rendering:geometricPrecision; image-rendering:optimizeQuality; fill-rule:evenodd; clip-rule:evenodd" xmlns:xlink="http://www.w3.org/1999/xlink">
<g><path style="opacity:1" fill="#fefefe" d="M -0.5,-0.5 C 18.1667,-0.5 36.8333,-0.5 55.5,-0.5C 55.5,19.5 55.5,39.5 55.5,59.5C 36.8333,59.5 18.1667,59.5 -0.5,59.5C -0.5,39.5 -0.5,19.5 -0.5,-0.5 Z"/></g>
<g><path style="opacity:1" fill="#91979e" d="M 23.5,16.5 C 29.8421,16.3338 36.1754,16.5005 42.5,17C 44.3289,17.2735 45.8289,18.1068 47,19.5C 48.576,25.3877 48.9094,31.3877 48,37.5C 47.5348,38.9308 46.7014,40.0975 45.5,41C 38.2473,42.557 30.914,42.8903 23.5,42C 22.0692,41.5348 20.9025,40.7014 20,39.5C 18.424,33.6123 18.0906,27.6123 19,21.5C 20.025,19.313 21.525,17.6464 23.5,16.5 Z"/></g>
<g><path style="opacity:1" fill="#f8f8f8" d="M 24.5,19.5 C 30.8933,19.2071 37.2266,19.5404 43.5,20.5C 44.1924,21.0253 44.6924,21.6919 45,22.5C 45.781,27.5544 45.6143,32.5544 44.5,37.5C 43.9747,38.1924 43.3081,38.6924 42.5,39C 36.1151,39.7927 29.7818,39.626 23.5,38.5C 22.8076,37.9747 22.3076,37.3081 22,36.5C 21.3333,31.8333 21.3333,27.1667 22,22.5C 22.6979,21.3094 23.5313,20.3094 24.5,19.5 Z"/></g>
<g><path style="opacity:1" fill="#90969c" d="M 25.5,24.5 C 28.3809,25.2737 31.0476,26.6071 33.5,28.5C 35.1667,27.3333 36.8333,26.1667 38.5,25C 39.635,24.2506 40.635,24.4173 41.5,25.5C 35.555,33.6739 30.2216,33.3406 25.5,24.5 Z"/></g>
</svg>
