<svg width="30" height="31" viewBox="0 0 30 31" fill="none" xmlns="http://www.w3.org/2000/svg">
<path d="M0.5 8.5C0.5 4.35786 3.85786 1 8 1H22C26.1421 1 29.5 4.35786 29.5 8.5V22.5C29.5 26.6421 26.1421 30 22 30H8C3.85786 30 0.5 26.6421 0.5 22.5V8.5Z" stroke="#4263EB"/>
<path d="M13.1916 12.9101C13.3724 10.8101 14.4516 9.95264 16.8141 9.95264H16.8899C19.4974 9.95264 20.5416 10.9968 20.5416 13.6043V17.4076C20.5416 20.0151 19.4974 21.0593 16.8899 21.0593H16.8141C14.4691 21.0593 13.3899 20.2135 13.1974 18.1485M16.7499 15.5001H10.1116M11.4124 13.546L9.45825 15.5001L11.4124 17.4543" stroke="#4263EB" stroke-linecap="round" stroke-linejoin="round"/>
</svg>
