<?xml version="1.0" encoding="UTF-8"?>
<!DOCTYPE svg PUBLIC "-//W3C//DTD SVG 1.1//EN" "http://www.w3.org/Graphics/SVG/1.1/DTD/svg11.dtd">
<svg xmlns="http://www.w3.org/2000/svg" version="1.1" width="38px" height="52px" style="shape-rendering:geometricPrecision; text-rendering:geometricPrecision; image-rendering:optimizeQuality; fill-rule:evenodd; clip-rule:evenodd" xmlns:xlink="http://www.w3.org/1999/xlink">
<g><path style="opacity:1" fill="#fefefe" d="M -0.5,-0.5 C 12.1667,-0.5 24.8333,-0.5 37.5,-0.5C 37.5,16.8333 37.5,34.1667 37.5,51.5C 24.8333,51.5 12.1667,51.5 -0.5,51.5C -0.5,34.1667 -0.5,16.8333 -0.5,-0.5 Z"/></g>
<g><path style="opacity:1" fill="#c0c0c0" d="M 14.5,13.5 C 28.6523,12.1515 34.8189,18.4848 33,32.5C 29.2192,40.3047 23.0525,43.138 14.5,41C 4.75355,35.1346 2.92022,27.3013 9,17.5C 11.0153,16.3034 12.8487,14.9701 14.5,13.5 Z"/></g>
<g><path style="opacity:1" fill="#fdfdfd" d="M 14.5,15.5 C 26.8441,14.0122 32.3441,19.3456 31,31.5C 27.783,38.5876 22.283,41.0876 14.5,39C 8.45619,35.5514 6.28953,30.3848 8,23.5C 9.30459,20.0386 11.4713,17.372 14.5,15.5 Z"/></g>
<g><path style="opacity:1" fill="#bbbbbb" d="M 18.5,21.5 C 19.7479,22.3339 20.4146,23.6672 20.5,25.5C 20.1667,26.8333 19.8333,28.1667 19.5,29.5C 18.52,26.9135 18.1866,24.2469 18.5,21.5 Z"/></g>
<g><path style="opacity:1" fill="#c8c8c8" d="M 18.5,31.5 C 20.337,31.6395 20.6704,32.3061 19.5,33.5C 18.7025,33.0431 18.3691,32.3764 18.5,31.5 Z"/></g>
</svg>
