<?xml version="1.0" encoding="UTF-8"?>
<!DOCTYPE svg PUBLIC "-//W3C//DTD SVG 1.1//EN" "http://www.w3.org/Graphics/SVG/1.1/DTD/svg11.dtd">
<svg xmlns="http://www.w3.org/2000/svg" version="1.1" width="50px" height="62px" style="shape-rendering:geometricPrecision; text-rendering:geometricPrecision; image-rendering:optimizeQuality; fill-rule:evenodd; clip-rule:evenodd" xmlns:xlink="http://www.w3.org/1999/xlink">
<g><path style="opacity:1" fill="#fefefe" d="M -0.5,-0.5 C 16.1667,-0.5 32.8333,-0.5 49.5,-0.5C 49.5,20.1667 49.5,40.8333 49.5,61.5C 32.8333,61.5 16.1667,61.5 -0.5,61.5C -0.5,40.8333 -0.5,20.1667 -0.5,-0.5 Z"/></g>
<g><path style="opacity:1" fill="#929293" d="M 20.5,14.5 C 29.3397,13.6699 35.5063,17.3365 39,25.5C 40.3224,34.3512 36.8224,40.5178 28.5,44C 22.5045,43.8653 16.6712,43.3653 11,42.5C 10.4295,36.9422 10.0961,31.2756 10,25.5C 12.3566,20.6455 15.8566,16.9788 20.5,14.5 Z"/></g>
<g><path style="opacity:1" fill="#f7f7f7" d="M 20.5,17.5 C 33.0181,17.5049 37.8514,23.5049 35,35.5C 32.4581,39.569 28.7914,41.569 24,41.5C 20.4092,40.2266 16.9092,39.56 13.5,39.5C 13.9867,38.5539 14.3201,37.5539 14.5,36.5C 10.4872,28.2189 12.4872,21.8855 20.5,17.5 Z"/></g>
<g><path style="opacity:1" fill="#8e8e8f" d="M 18.5,22.5 C 23.3234,22.3272 25.3234,24.6606 24.5,29.5C 29.983,28.8069 31.983,30.9735 30.5,36C 23.2411,36.9148 18.9078,33.7482 17.5,26.5C 17.6233,25.0755 17.9566,23.7421 18.5,22.5 Z"/></g>
<g><path style="opacity:1" fill="#d2d2d3" d="M 19.5,25.5 C 21.337,25.6395 21.6704,26.3061 20.5,27.5C 19.7025,27.0431 19.3691,26.3764 19.5,25.5 Z"/></g>
<g><path style="opacity:1" fill="#c9c9ca" d="M 26.5,32.5 C 28.337,32.6395 28.6704,33.3061 27.5,34.5C 26.7025,34.0431 26.3691,33.3764 26.5,32.5 Z"/></g>
</svg>
