<svg width="14" height="18" viewBox="0 0 14 18" fill="none" xmlns="http://www.w3.org/2000/svg">
<path d="M8.66675 1.5V4.83333C8.66675 5.05435 8.75455 5.26631 8.91083 5.42259C9.06711 5.57887 9.27907 5.66667 9.50008 5.66667H12.8334M8.66675 1.5H2.83341C2.39139 1.5 1.96746 1.67559 1.6549 1.98816C1.34234 2.30072 1.16675 2.72464 1.16675 3.16667V14.8333C1.16675 15.2754 1.34234 15.6993 1.6549 16.0118C1.96746 16.3244 2.39139 16.5 2.83341 16.5H11.1667C11.6088 16.5 12.0327 16.3244 12.3453 16.0118C12.6578 15.6993 12.8334 15.2754 12.8334 14.8333L12.8334 5.66667M8.66675 1.5L12.8334 5.66667M4.50008 13.1667H9.50008M4.50008 9.83333H9.50008" stroke="#161718" stroke-opacity="0.5" stroke-width="1.5" stroke-linecap="round" stroke-linejoin="round"/>
</svg>
