<svg width="19" height="15" viewBox="0 0 19 15" fill="none" xmlns="http://www.w3.org/2000/svg">
    <path d="M3.16667 13.8334L5.46417 7.70754C5.5237 7.54873 5.63027 7.41186 5.76964 7.31522C5.90902 7.21858 6.07456 7.16677 6.24417 7.16671H16.5M3.16667 13.8334H14.855C15.2427 13.8333 15.6183 13.698 15.917 13.4508C16.2158 13.2037 16.419 12.8601 16.4917 12.4792L17.3217 8.13671C17.3415 8.01738 17.3351 7.89516 17.303 7.77855C17.2708 7.66193 17.2137 7.55371 17.1355 7.46141C17.0573 7.36911 16.96 7.29494 16.8502 7.24405C16.7405 7.19315 16.621 7.16676 16.5 7.16671M3.16667 13.8334C2.72464 13.8334 2.30072 13.6578 1.98816 13.3452C1.67559 13.0327 1.5 12.6087 1.5 12.1667V3.00004C1.5 2.55801 1.67559 2.13409 1.98816 1.82153C2.30072 1.50897 2.72464 1.33337 3.16667 1.33337H6.5L9 3.83337H14.8333C15.2754 3.83337 15.6993 4.00897 16.0118 4.32153C16.3244 4.63409 16.5 5.05801 16.5 5.50004V7.16671" stroke="#4263EB" stroke-width="1.5" stroke-linecap="round" stroke-linejoin="round"/>
    </svg>
    