<svg width="40" height="40" viewBox="0 0 40 40" fill="none" xmlns="http://www.w3.org/2000/svg">
<path d="M19.95 36.6667C29.1547 36.6667 36.6167 29.2048 36.6167 20C36.6167 10.7953 29.1547 3.33337 19.95 3.33337C10.7452 3.33337 3.28333 10.7953 3.28333 20C3.28333 29.2048 10.7452 36.6667 19.95 36.6667Z" stroke="#0B7285" stroke-width="1.5" stroke-linecap="round" stroke-linejoin="round"/>
<path d="M17.8667 24.2167V15.7834C17.8667 14.9834 17.5333 14.6667 16.6833 14.6667H14.5167C13.6667 14.6667 13.3333 14.9834 13.3333 15.7834V24.2167C13.3333 25.0167 13.6667 25.3334 14.5167 25.3334H16.6667C17.5333 25.3334 17.8667 25.0167 17.8667 24.2167Z" stroke="#0B7285" stroke-width="1.5" stroke-linecap="round" stroke-linejoin="round"/>
<path d="M26.6667 24.2167V15.7834C26.6667 14.9834 26.3333 14.6667 25.4833 14.6667H23.3333C22.4833 14.6667 22.15 14.9834 22.15 15.7834V24.2167C22.15 25.0167 22.4833 25.3334 23.3333 25.3334H25.4833C26.3333 25.3334 26.6667 25.0167 26.6667 24.2167Z" stroke="#0B7285" stroke-width="1.5" stroke-linecap="round" stroke-linejoin="round"/>
</svg>
