<svg width="200" height="200" viewBox="0 0 160 161" fill="none" xmlns="http://www.w3.org/2000/svg">
<path d="M160 80.0391C160 124.222 124.183 160.039 80 160.039C35.8172 160.039 0 124.222 0 80.0391C0 35.8563 35.8172 0.0390625 80 0.0390625C124.183 0.0390625 160 35.8563 160 80.0391ZM8 80.0391C8 119.804 40.2355 152.039 80 152.039C119.765 152.039 152 119.804 152 80.0391C152 40.2746 119.765 8.03906 80 8.03906C40.2355 8.03906 8 40.2746 8 80.0391Z" fill="#C0D0FF"/>
<path d="M80 0.0390625C96.8943 0.0390627 113.355 5.38746 127.023 15.3177C140.691 25.2479 150.864 39.2502 156.085 55.3177L148.476 57.7898C143.777 43.3291 134.622 30.7271 122.321 21.7898C110.02 12.8526 95.2049 8.03906 80 8.03906V0.0390625Z" fill="#37B24D"/>
<path d="M156.085 55.3177C160.644 69.3494 161.234 84.3685 157.79 98.7147C154.345 113.061 147.001 126.175 136.569 136.608C126.136 147.04 113.022 154.384 98.6757 157.829C84.3295 161.273 69.3104 160.683 55.2787 156.124L57.7508 148.515C70.3793 152.618 83.8966 153.149 96.8081 150.05C109.72 146.95 121.522 140.34 130.912 130.951C140.301 121.561 146.911 109.759 150.011 96.8471C153.11 83.9356 152.579 70.4184 148.476 57.7898L156.085 55.3177Z" fill="#748FFC"/>
<path d="M55.2786 156.124C39.2112 150.903 25.2089 140.73 15.2786 127.062L21.7508 122.36C30.688 134.661 43.29 143.817 57.7508 148.515L55.2786 156.124Z" fill="#862E9C"/>
<path d="M15.2786 127.062C3.31853 110.6 -1.91943 90.1997 0.630825 70.0124L8.56774 71.0151C6.27252 89.1836 10.9867 107.544 21.7508 122.36L15.2786 127.062Z" fill="#F59F00"/>
<path d="M0.596309 70.2895C2.4464 55.2217 8.54553 40.9914 18.1813 29.2606C27.8171 17.5298 40.5918 8.78282 55.0132 4.0413L57.5119 11.6411C44.5326 15.9084 33.0354 23.7807 24.3632 34.3385C15.691 44.8962 10.2018 57.7035 8.53668 71.2645L0.596309 70.2895Z" fill="#0B7285"/>
<path d="M54.6157 4.17316C62.9765 1.37566 71.7423 -0.0205424 80.5585 0.0410123L80.5027 8.04082C72.5681 7.98542 64.6789 9.242 57.1541 11.7598L54.6157 4.17316Z" fill="#FF6B6B"/>
</svg>
