<svg width="40" height="40" viewBox="0 0 40 40" fill="none" xmlns="http://www.w3.org/2000/svg">
<path d="M27.75 33.6666C27.75 29.7833 23.8833 26.6166 19.1 26.6166C14.3167 26.6166 10.45 29.7666 10.45 33.6666M25.3333 6.23328C23.4333 5.43328 21.35 4.99996 19.1667 4.99996C10.4167 4.99996 3.33334 12.0833 3.33334 20.8333C3.33334 29.5833 10.4167 36.6666 19.1667 36.6666C27.9167 36.6666 35 29.5833 35 20.8333C35 18.65 34.55 16.5499 33.75 14.6499M25.3333 6.23328C25.1167 6.89994 25 7.59996 25 8.33329C25 9.58329 25.35 10.7666 25.9667 11.7666C26.3 12.3333 26.7333 12.8499 27.2333 13.2832C28.4 14.3499 29.95 15 31.6667 15C32.4 15 33.1 14.8833 33.75 14.6499M25.3333 6.23328C25.65 5.26661 26.1833 4.4 26.8833 3.68333C28.1 2.43333 29.8 1.66663 31.6667 1.66663C33.6333 1.66663 35.4167 2.51665 36.6167 3.88332C37.6833 5.06665 38.3333 6.63329 38.3333 8.33329C38.3333 8.86663 38.2667 9.38328 38.1333 9.88328C37.9833 10.5499 37.7167 11.2 37.3667 11.7666C36.5667 13.1166 35.2833 14.1666 33.75 14.6499M34.15 8.29993H29.1833M31.6667 5.86666V10.85M23.7833 18.1999C23.7833 20.7865 21.6865 22.8833 19.1 22.8833C16.5135 22.8833 14.4167 20.7865 14.4167 18.1999C14.4167 15.6134 16.5135 13.5166 19.1 13.5166C21.6865 13.5166 23.7833 15.6134 23.7833 18.1999Z" stroke="#364FC7" stroke-width="1.5" stroke-miterlimit="10" stroke-linecap="round" stroke-linejoin="round"/>
</svg>
